<mxfile host="65bd71144e">
    <diagram id="emvvtYQxzRHmPXdrn84x" name="Page-1">
        <mxGraphModel dx="3968" dy="2820" grid="1" gridSize="10" guides="1" tooltips="1" connect="1" arrows="1" fold="1" page="1" pageScale="1" pageWidth="850" pageHeight="1100" math="0" shadow="0">
            <root>
                <mxCell id="0"/>
                <mxCell id="1" parent="0"/>
                <mxCell id="68" style="edgeStyle=none;html=1;entryX=0.25;entryY=0;entryDx=0;entryDy=0;exitX=0.254;exitY=0.993;exitDx=0;exitDy=0;exitPerimeter=0;fontStyle=1" parent="1" source="5" target="6" edge="1">
                    <mxGeometry relative="1" as="geometry">
                        <Array as="points">
                            <mxPoint x="-20" y="10"/>
                        </Array>
                    </mxGeometry>
                </mxCell>
                <mxCell id="461" value="&lt;font style=&quot;font-size: 36px;&quot;&gt;Purpose of&amp;nbsp;&lt;br&gt;Contact&lt;/font&gt;" style="edgeLabel;html=1;align=center;verticalAlign=middle;resizable=0;points=[];fontSize=24;" parent="68" vertex="1" connectable="0">
                    <mxGeometry x="-0.2114" y="2" relative="1" as="geometry">
                        <mxPoint x="-54" y="8" as="offset"/>
                    </mxGeometry>
                </mxCell>
                <mxCell id="142" style="edgeStyle=none;html=1;entryX=1.001;entryY=0.841;entryDx=0;entryDy=0;fontSize=36;entryPerimeter=0;exitX=0;exitY=0;exitDx=480.93;exitDy=10;exitPerimeter=0;fontStyle=1" parent="1" source="5" target="113" edge="1">
                    <mxGeometry relative="1" as="geometry">
                        <Array as="points">
                            <mxPoint x="1310" y="-320"/>
                            <mxPoint x="1320" y="1604"/>
                        </Array>
                    </mxGeometry>
                </mxCell>
                <mxCell id="234" value="&lt;font style=&quot;font-size: 48px;&quot;&gt;name and Valid ID information&lt;/font&gt;" style="edgeLabel;html=1;align=center;verticalAlign=middle;resizable=0;points=[];fontSize=24;" parent="142" vertex="1" connectable="0">
                    <mxGeometry x="-0.4972" y="2" relative="1" as="geometry">
                        <mxPoint x="-267" y="-29" as="offset"/>
                    </mxGeometry>
                </mxCell>
                <mxCell id="288" value="&lt;font style=&quot;font-size: 36px;&quot;&gt;Name and &lt;br&gt;Valid ID&lt;br&gt;&lt;/font&gt;" style="edgeLabel;html=1;align=center;verticalAlign=middle;resizable=0;points=[];fontSize=30;" parent="142" vertex="1" connectable="0">
                    <mxGeometry x="0.9023" y="-3" relative="1" as="geometry">
                        <mxPoint x="13" y="-46" as="offset"/>
                    </mxGeometry>
                </mxCell>
                <mxCell id="155" style="edgeStyle=none;html=1;entryX=0;entryY=0.25;entryDx=0;entryDy=0;exitX=0;exitY=0;exitDx=0;exitDy=110;exitPerimeter=0;fontStyle=1" parent="1" edge="1" target="77" source="5">
                    <mxGeometry relative="1" as="geometry">
                        <mxPoint x="-30" y="2622.619999999999" as="targetPoint"/>
                        <Array as="points">
                            <mxPoint x="-1150" y="-117.38"/>
                            <mxPoint x="-1140" y="2440"/>
                        </Array>
                        <mxPoint x="-89.69000000000005" y="-129.99652996144766" as="sourcePoint"/>
                    </mxGeometry>
                </mxCell>
                <mxCell id="245" value="&lt;font style=&quot;font-size: 36px;&quot;&gt;Customer Personal Information&lt;br&gt;&lt;/font&gt;" style="edgeLabel;html=1;align=center;verticalAlign=middle;resizable=0;points=[];fontSize=24;" parent="155" vertex="1" connectable="0">
                    <mxGeometry x="0.8077" y="5" relative="1" as="geometry">
                        <mxPoint x="109" y="36" as="offset"/>
                    </mxGeometry>
                </mxCell>
                <mxCell id="261" value="Customer Personal Information" style="edgeLabel;html=1;align=center;verticalAlign=middle;resizable=0;points=[];fontSize=36;" parent="155" vertex="1" connectable="0">
                    <mxGeometry x="-0.6221" y="3" relative="1" as="geometry">
                        <mxPoint x="275" y="-41" as="offset"/>
                    </mxGeometry>
                </mxCell>
                <mxCell id="5" value="&lt;font style=&quot;font-size: 72px;&quot;&gt;CUSTOMER&lt;/font&gt;" style="shape=cube;whiteSpace=wrap;html=1;boundedLbl=1;backgroundOutline=1;darkOpacity=0.05;darkOpacity2=0.1;" parent="1" vertex="1">
                    <mxGeometry x="-160" y="-370" width="490.93" height="240" as="geometry"/>
                </mxCell>
                <mxCell id="64" style="edgeStyle=none;html=1;entryX=0;entryY=0.5;entryDx=0;entryDy=0;exitX=1.009;exitY=0.555;exitDx=0;exitDy=0;exitPerimeter=0;fontStyle=1" parent="1" target="48" edge="1" source="6">
                    <mxGeometry relative="1" as="geometry">
                        <mxPoint x="300" y="190" as="sourcePoint"/>
                        <mxPoint x="520" y="160" as="targetPoint"/>
                    </mxGeometry>
                </mxCell>
                <mxCell id="305" value="&lt;font style=&quot;font-size: 36px;&quot;&gt;Purpose of&amp;nbsp;&lt;br&gt;Contact&lt;/font&gt;" style="edgeLabel;html=1;align=center;verticalAlign=middle;resizable=0;points=[];fontSize=24;" parent="64" vertex="1" connectable="0">
                    <mxGeometry x="-0.3272" y="-1" relative="1" as="geometry">
                        <mxPoint x="139" y="-5" as="offset"/>
                    </mxGeometry>
                </mxCell>
                <mxCell id="69" value="&lt;font style=&quot;font-size: 48px;&quot;&gt;Questions&lt;/font&gt;" style="edgeStyle=none;html=1;entryX=0.138;entryY=-0.01;entryDx=0;entryDy=0;entryPerimeter=0;exitX=0.157;exitY=1.003;exitDx=0;exitDy=0;exitPerimeter=0;fontStyle=1" parent="1" source="6" target="37" edge="1">
                    <mxGeometry x="-0.0423" y="-39" relative="1" as="geometry">
                        <mxPoint as="offset"/>
                    </mxGeometry>
                </mxCell>
                <mxCell id="97" style="edgeStyle=none;html=1;exitX=0.75;exitY=0;exitDx=0;exitDy=0;entryX=0.746;entryY=0.996;entryDx=0;entryDy=0;entryPerimeter=0;fontStyle=1" parent="1" source="6" target="5" edge="1">
                    <mxGeometry relative="1" as="geometry"/>
                </mxCell>
                <mxCell id="460" value="&lt;font style=&quot;font-size: 36px;&quot;&gt;feedback and information&lt;/font&gt;" style="edgeLabel;html=1;align=center;verticalAlign=middle;resizable=0;points=[];fontSize=24;" parent="97" vertex="1" connectable="0">
                    <mxGeometry x="-0.5607" y="2" relative="1" as="geometry">
                        <mxPoint x="119" y="-35" as="offset"/>
                    </mxGeometry>
                </mxCell>
                <mxCell id="98" style="edgeStyle=none;html=1;entryX=1;entryY=0.5;entryDx=0;entryDy=0;exitX=0;exitY=0.5;exitDx=0;exitDy=0;fontStyle=1" parent="1" source="6" target="39" edge="1">
                    <mxGeometry relative="1" as="geometry"/>
                </mxCell>
                <mxCell id="235" value="Purpose of contact" style="edgeLabel;html=1;align=center;verticalAlign=middle;resizable=0;points=[];fontSize=36;" parent="98" vertex="1" connectable="0">
                    <mxGeometry x="0.1171" relative="1" as="geometry">
                        <mxPoint x="19" y="-39" as="offset"/>
                    </mxGeometry>
                </mxCell>
                <mxCell id="6" value="&lt;font style=&quot;font-size: 36px;&quot;&gt;Contact with business management&lt;/font&gt;" style="rounded=1;whiteSpace=wrap;html=1;fontSize=24;" parent="1" vertex="1">
                    <mxGeometry x="-110.62" y="30" width="400.62" height="160" as="geometry"/>
                </mxCell>
                <mxCell id="7" value="" style="endArrow=none;html=1;fontSize=24;exitX=0;exitY=0.25;exitDx=0;exitDy=0;entryX=1;entryY=0.25;entryDx=0;entryDy=0;fontStyle=1" parent="1" source="6" target="6" edge="1">
                    <mxGeometry width="50" height="50" relative="1" as="geometry">
                        <mxPoint x="190" y="600" as="sourcePoint"/>
                        <mxPoint x="240" y="550" as="targetPoint"/>
                    </mxGeometry>
                </mxCell>
                <mxCell id="441" value="&lt;font style=&quot;font-size: 24px;&quot;&gt;1.0&lt;/font&gt;" style="edgeLabel;html=1;align=center;verticalAlign=middle;resizable=0;points=[];" parent="7" vertex="1" connectable="0">
                    <mxGeometry x="-0.4935" y="-1" relative="1" as="geometry">
                        <mxPoint x="-50" y="-21" as="offset"/>
                    </mxGeometry>
                </mxCell>
                <mxCell id="184" style="edgeStyle=none;html=1;entryX=0;entryY=0.25;entryDx=0;entryDy=0;exitX=1;exitY=0.25;exitDx=0;exitDy=0;fontStyle=1" parent="1" source="8" target="160" edge="1">
                    <mxGeometry relative="1" as="geometry">
                        <mxPoint x="1110" y="3200" as="sourcePoint"/>
                        <mxPoint x="2070" y="2040" as="targetPoint"/>
                        <Array as="points">
                            <mxPoint x="1220" y="3230"/>
                            <mxPoint x="1270" y="3000"/>
                            <mxPoint x="1880" y="2990"/>
                            <mxPoint x="1880" y="2010"/>
                        </Array>
                    </mxGeometry>
                </mxCell>
                <mxCell id="238" value="&lt;font style=&quot;font-size: 36px;&quot;&gt;Upcoming Reserved &lt;br&gt;Rooms Information&amp;nbsp;&amp;nbsp;&lt;/font&gt;" style="edgeLabel;html=1;align=center;verticalAlign=middle;resizable=0;points=[];fontSize=24;" parent="184" vertex="1" connectable="0">
                    <mxGeometry x="-0.5975" y="1" relative="1" as="geometry">
                        <mxPoint x="-6" y="13" as="offset"/>
                    </mxGeometry>
                </mxCell>
                <mxCell id="276" value="&lt;span style=&quot;font-size: 36px;&quot;&gt;Upcoming &lt;br&gt;Reserved&amp;nbsp;&lt;br&gt;&lt;/span&gt;&lt;span style=&quot;font-size: 36px;&quot;&gt;Rooms &lt;br&gt;Information&amp;nbsp;&amp;nbsp;&lt;/span&gt;" style="edgeLabel;html=1;align=center;verticalAlign=middle;resizable=0;points=[];fontSize=24;" parent="184" vertex="1" connectable="0">
                    <mxGeometry x="0.8869" y="-3" relative="1" as="geometry">
                        <mxPoint x="-10" y="1" as="offset"/>
                    </mxGeometry>
                </mxCell>
                <mxCell id="216" style="edgeStyle=none;html=1;fontSize=24;exitX=0.174;exitY=-0.008;exitDx=0;exitDy=0;exitPerimeter=0;entryX=1;entryY=0.632;entryDx=0;entryDy=0;entryPerimeter=0;fontStyle=1" parent="1" source="8" target="53" edge="1">
                    <mxGeometry relative="1" as="geometry">
                        <mxPoint x="690" y="3240" as="sourcePoint"/>
                        <mxPoint x="450" y="1790" as="targetPoint"/>
                        <Array as="points">
                            <mxPoint x="700" y="1820"/>
                        </Array>
                    </mxGeometry>
                </mxCell>
                <mxCell id="217" value="&lt;font style=&quot;font-size: 36px;&quot;&gt;Room &lt;br&gt;Availability&lt;br&gt;data&amp;nbsp;&lt;/font&gt;" style="edgeLabel;html=1;align=center;verticalAlign=middle;resizable=0;points=[];fontSize=24;" parent="216" vertex="1" connectable="0">
                    <mxGeometry x="0.6632" y="3" relative="1" as="geometry">
                        <mxPoint x="-129" y="33" as="offset"/>
                    </mxGeometry>
                </mxCell>
                <mxCell id="479" value="&lt;font style=&quot;font-size: 36px;&quot;&gt;Room&lt;br style=&quot;&quot;&gt;Availability&lt;br style=&quot;&quot;&gt;data&amp;nbsp;&lt;/font&gt;" style="edgeLabel;html=1;align=center;verticalAlign=middle;resizable=0;points=[];fontSize=24;" parent="216" vertex="1" connectable="0">
                    <mxGeometry x="-0.7768" y="3" relative="1" as="geometry">
                        <mxPoint x="28" y="11" as="offset"/>
                    </mxGeometry>
                </mxCell>
                <mxCell id="8" value="&lt;font style=&quot;font-size: 36px;&quot;&gt;Transaction Logs&lt;/font&gt;" style="rounded=0;whiteSpace=wrap;html=1;fontSize=24;" parent="1" vertex="1">
                    <mxGeometry x="640" y="3250" width="493.12" height="120" as="geometry"/>
                </mxCell>
                <mxCell id="9" value="" style="endArrow=none;html=1;fontSize=24;exitX=0.155;exitY=-0.002;exitDx=0;exitDy=0;exitPerimeter=0;entryX=0.152;entryY=1.011;entryDx=0;entryDy=0;entryPerimeter=0;fontStyle=1" parent="1" source="8" target="8" edge="1">
                    <mxGeometry width="50" height="50" relative="1" as="geometry">
                        <mxPoint x="-558.28" y="2980.58" as="sourcePoint"/>
                        <mxPoint x="-508.28000000000003" y="2930.58" as="targetPoint"/>
                    </mxGeometry>
                </mxCell>
                <mxCell id="13" value="" style="rounded=0;whiteSpace=wrap;html=1;fontSize=24;" parent="1" vertex="1">
                    <mxGeometry x="-140" y="3160" width="510.62" height="170" as="geometry"/>
                </mxCell>
                <mxCell id="14" value="" style="endArrow=none;html=1;fontSize=24;exitX=0.155;exitY=-0.002;exitDx=0;exitDy=0;exitPerimeter=0;entryX=0.152;entryY=1.011;entryDx=0;entryDy=0;entryPerimeter=0;fontStyle=1" parent="1" source="13" target="13" edge="1">
                    <mxGeometry width="50" height="50" relative="1" as="geometry">
                        <mxPoint x="247.34" y="3170.7200000000003" as="sourcePoint"/>
                        <mxPoint x="297.34" y="3120.7200000000003" as="targetPoint"/>
                    </mxGeometry>
                </mxCell>
                <mxCell id="183" style="edgeStyle=none;html=1;entryX=0.814;entryY=1.005;entryDx=0;entryDy=0;exitX=1;exitY=0.5;exitDx=0;exitDy=0;entryPerimeter=0;fontStyle=1" parent="1" source="15" target="162" edge="1">
                    <mxGeometry relative="1" as="geometry">
                        <Array as="points">
                            <mxPoint x="3130" y="3230"/>
                        </Array>
                    </mxGeometry>
                </mxCell>
                <mxCell id="239" value="&lt;font style=&quot;font-size: 48px;&quot;&gt;Upcoming schedule &lt;br&gt;for Catering Services&amp;nbsp;&lt;/font&gt;" style="edgeLabel;html=1;align=center;verticalAlign=middle;resizable=0;points=[];fontSize=24;" parent="183" vertex="1" connectable="0">
                    <mxGeometry x="-0.7964" y="10" relative="1" as="geometry">
                        <mxPoint x="110" y="35" as="offset"/>
                    </mxGeometry>
                </mxCell>
                <mxCell id="262" value="Upcoming schedule&lt;br&gt;for Catering Services&amp;nbsp;" style="edgeLabel;html=1;align=center;verticalAlign=middle;resizable=0;points=[];fontSize=36;" parent="183" vertex="1" connectable="0">
                    <mxGeometry x="0.5887" y="-1" relative="1" as="geometry">
                        <mxPoint x="-21" y="-115" as="offset"/>
                    </mxGeometry>
                </mxCell>
                <mxCell id="15" value="&lt;font style=&quot;font-size: 48px;&quot;&gt;Service Invoice&lt;/font&gt;" style="rounded=0;whiteSpace=wrap;html=1;fontSize=24;" parent="1" vertex="1">
                    <mxGeometry x="1340" y="3200.48" width="530" height="119.76" as="geometry"/>
                </mxCell>
                <mxCell id="16" value="" style="endArrow=none;html=1;fontSize=24;exitX=0.155;exitY=-0.002;exitDx=0;exitDy=0;exitPerimeter=0;entryX=0.152;entryY=1.011;entryDx=0;entryDy=0;entryPerimeter=0;fontStyle=1" parent="1" source="15" target="15" edge="1">
                    <mxGeometry width="50" height="50" relative="1" as="geometry">
                        <mxPoint x="247.34" y="3450.8999999999996" as="sourcePoint"/>
                        <mxPoint x="297.34" y="3400.8999999999996" as="targetPoint"/>
                    </mxGeometry>
                </mxCell>
                <mxCell id="71" style="edgeStyle=none;html=1;entryX=0.25;entryY=0;entryDx=0;entryDy=0;exitX=0.302;exitY=1.011;exitDx=0;exitDy=0;exitPerimeter=0;fontStyle=1" parent="1" source="17" target="33" edge="1">
                    <mxGeometry relative="1" as="geometry"/>
                </mxCell>
                <mxCell id="230" value="&lt;font style=&quot;font-size: 36px;&quot;&gt;Request to &lt;br&gt;Avail Service&lt;/font&gt;" style="edgeLabel;html=1;align=center;verticalAlign=middle;resizable=0;points=[];fontSize=24;" parent="71" vertex="1" connectable="0">
                    <mxGeometry x="-0.2588" y="2" relative="1" as="geometry">
                        <mxPoint x="-118" y="12" as="offset"/>
                    </mxGeometry>
                </mxCell>
                <mxCell id="17" value="&lt;font style=&quot;font-size: 36px;&quot;&gt;Start a transaction&lt;/font&gt;" style="rounded=1;whiteSpace=wrap;html=1;fontSize=24;" parent="1" vertex="1">
                    <mxGeometry x="-170" y="660" width="490" height="130" as="geometry"/>
                </mxCell>
                <mxCell id="18" value="" style="endArrow=none;html=1;fontSize=24;exitX=0.002;exitY=0.324;exitDx=0;exitDy=0;entryX=1.002;entryY=0.338;entryDx=0;entryDy=0;exitPerimeter=0;entryPerimeter=0;fontStyle=1" parent="1" source="17" target="17" edge="1">
                    <mxGeometry width="50" height="50" relative="1" as="geometry">
                        <mxPoint x="150" y="730" as="sourcePoint"/>
                        <mxPoint x="200" y="680" as="targetPoint"/>
                    </mxGeometry>
                </mxCell>
                <mxCell id="443" value="3.0" style="edgeLabel;html=1;align=center;verticalAlign=middle;resizable=0;points=[];fontSize=24;" parent="18" vertex="1" connectable="0">
                    <mxGeometry x="-0.6495" y="4" relative="1" as="geometry">
                        <mxPoint x="-13" y="-18" as="offset"/>
                    </mxGeometry>
                </mxCell>
                <mxCell id="125" style="edgeStyle=none;html=1;fontSize=36;exitX=0.478;exitY=-0.018;exitDx=0;exitDy=0;exitPerimeter=0;fontStyle=1" parent="1" source="26" edge="1">
                    <mxGeometry relative="1" as="geometry">
                        <Array as="points"/>
                        <mxPoint x="-645" y="830" as="sourcePoint"/>
                        <mxPoint x="-655" y="600" as="targetPoint"/>
                    </mxGeometry>
                </mxCell>
                <mxCell id="242" value="&lt;font style=&quot;&quot;&gt;&lt;font style=&quot;font-size: 48px;&quot;&gt;combo meal&amp;nbsp;availability&lt;/font&gt;&lt;br&gt;&lt;/font&gt;" style="edgeLabel;html=1;align=center;verticalAlign=middle;resizable=0;points=[];" parent="125" vertex="1" connectable="0">
                    <mxGeometry x="-0.0646" relative="1" as="geometry">
                        <mxPoint x="-120" y="-249" as="offset"/>
                    </mxGeometry>
                </mxCell>
                <mxCell id="126" style="edgeStyle=none;html=1;fontSize=36;entryX=0.472;entryY=-0.019;entryDx=0;entryDy=0;entryPerimeter=0;fontStyle=1" parent="1" source="26" target="106" edge="1">
                    <mxGeometry relative="1" as="geometry"/>
                </mxCell>
                <mxCell id="297" value="Customer breakfast&lt;br&gt;combo expectation" style="edgeLabel;html=1;align=center;verticalAlign=middle;resizable=0;points=[];fontSize=36;" parent="126" vertex="1" connectable="0">
                    <mxGeometry x="-0.3226" relative="1" as="geometry">
                        <mxPoint x="16" y="23" as="offset"/>
                    </mxGeometry>
                </mxCell>
                <mxCell id="26" value="&lt;font style=&quot;font-size: 36px;&quot;&gt;Avail Breakfast Combo&lt;/font&gt;" style="rounded=1;whiteSpace=wrap;html=1;fontSize=24;" parent="1" vertex="1">
                    <mxGeometry x="-850" y="1240" width="390" height="170" as="geometry"/>
                </mxCell>
                <mxCell id="27" value="" style="endArrow=none;html=1;fontSize=24;exitX=-0.002;exitY=0.327;exitDx=0;exitDy=0;entryX=0.998;entryY=0.307;entryDx=0;entryDy=0;entryPerimeter=0;exitPerimeter=0;fontStyle=1" parent="1" source="26" target="26" edge="1">
                    <mxGeometry width="50" height="50" relative="1" as="geometry">
                        <mxPoint x="-190" y="900" as="sourcePoint"/>
                        <mxPoint x="-140" y="850" as="targetPoint"/>
                    </mxGeometry>
                </mxCell>
                <mxCell id="489" value="&lt;font style=&quot;font-size: 24px;&quot;&gt;5.2&lt;/font&gt;" style="edgeLabel;html=1;align=center;verticalAlign=middle;resizable=0;points=[];" parent="27" vertex="1" connectable="0">
                    <mxGeometry x="-0.7917" y="6" relative="1" as="geometry">
                        <mxPoint x="16" y="-19" as="offset"/>
                    </mxGeometry>
                </mxCell>
                <mxCell id="67" style="edgeStyle=none;html=1;entryX=0.75;entryY=1;entryDx=0;entryDy=0;exitX=0.738;exitY=0.008;exitDx=0;exitDy=0;exitPerimeter=0;fontStyle=1" parent="1" source="28" target="48" edge="1">
                    <mxGeometry relative="1" as="geometry">
                        <mxPoint x="860" y="470" as="sourcePoint"/>
                    </mxGeometry>
                </mxCell>
                <mxCell id="313" value="&lt;font style=&quot;font-size: 36px;&quot;&gt;Business Process and &lt;br&gt;services of interest&lt;/font&gt;" style="edgeLabel;html=1;align=center;verticalAlign=middle;resizable=0;points=[];fontSize=36;" parent="67" vertex="1" connectable="0">
                    <mxGeometry x="-0.1125" relative="1" as="geometry">
                        <mxPoint x="-37" y="-15" as="offset"/>
                    </mxGeometry>
                </mxCell>
                <mxCell id="144" style="edgeStyle=none;html=1;entryX=0.627;entryY=-0.001;entryDx=0;entryDy=0;fontSize=36;entryPerimeter=0;exitX=0.904;exitY=1.002;exitDx=0;exitDy=0;exitPerimeter=0;fontStyle=1" parent="1" source="28" target="110" edge="1">
                    <mxGeometry relative="1" as="geometry">
                        <Array as="points">
                            <mxPoint x="1090" y="900"/>
                        </Array>
                        <mxPoint x="1144.9203200000002" y="788.0499999999997" as="targetPoint"/>
                    </mxGeometry>
                </mxCell>
                <mxCell id="307" value="&lt;font style=&quot;font-size: 36px;&quot;&gt;Employee&lt;br style=&quot;&quot;&gt;Credentials&amp;nbsp;&lt;br&gt;&lt;/font&gt;" style="edgeLabel;html=1;align=center;verticalAlign=middle;resizable=0;points=[];fontSize=48;" parent="144" vertex="1" connectable="0">
                    <mxGeometry x="-0.1057" y="6" relative="1" as="geometry">
                        <mxPoint x="-6" y="-11" as="offset"/>
                    </mxGeometry>
                </mxCell>
                <mxCell id="300" style="edgeStyle=none;html=1;entryX=1;entryY=0.5;entryDx=0;entryDy=0;fontSize=36;exitX=-0.003;exitY=0.635;exitDx=0;exitDy=0;exitPerimeter=0;fontStyle=1" parent="1" source="28" target="17" edge="1">
                    <mxGeometry relative="1" as="geometry">
                        <Array as="points"/>
                    </mxGeometry>
                </mxCell>
                <mxCell id="301" value="&lt;font style=&quot;&quot;&gt;&lt;font style=&quot;font-size: 36px;&quot;&gt;Employee&lt;br&gt;Credentials&amp;nbsp;&lt;/font&gt;&lt;br&gt;&lt;/font&gt;" style="edgeLabel;html=1;align=center;verticalAlign=middle;resizable=0;points=[];fontSize=36;" parent="300" vertex="1" connectable="0">
                    <mxGeometry x="-0.3015" y="2" relative="1" as="geometry">
                        <mxPoint x="-78" y="23" as="offset"/>
                    </mxGeometry>
                </mxCell>
                <mxCell id="302" style="edgeStyle=none;html=1;fontSize=24;exitX=-0.001;exitY=0.232;exitDx=0;exitDy=0;exitPerimeter=0;entryX=0.997;entryY=0.918;entryDx=0;entryDy=0;entryPerimeter=0;fontStyle=1" parent="1" source="28" edge="1" target="6">
                    <mxGeometry relative="1" as="geometry">
                        <mxPoint x="531.0399999999997" y="495.7600000000002" as="sourcePoint"/>
                        <mxPoint x="300" y="260" as="targetPoint"/>
                        <Array as="points">
                            <mxPoint x="500" y="536"/>
                            <mxPoint x="510" y="240"/>
                        </Array>
                    </mxGeometry>
                </mxCell>
                <mxCell id="303" value="&lt;font style=&quot;font-size: 36px;&quot;&gt;business &lt;br&gt;Introduction&amp;nbsp;&lt;/font&gt;" style="edgeLabel;html=1;align=center;verticalAlign=middle;resizable=0;points=[];fontSize=24;" parent="302" vertex="1" connectable="0">
                    <mxGeometry x="0.2088" y="-1" relative="1" as="geometry">
                        <mxPoint x="-3" y="50" as="offset"/>
                    </mxGeometry>
                </mxCell>
                <mxCell id="28" value="&lt;font style=&quot;&quot;&gt;&lt;font style=&quot;font-size: 36px;&quot;&gt;Front Desk Counter Officer&lt;/font&gt;&lt;br&gt;&lt;/font&gt;" style="shape=cube;whiteSpace=wrap;html=1;boundedLbl=1;backgroundOutline=1;darkOpacity=0.05;darkOpacity2=0.1;" parent="1" vertex="1">
                    <mxGeometry x="733.12" y="480" width="510" height="240" as="geometry"/>
                </mxCell>
                <mxCell id="138" style="edgeStyle=none;html=1;fontSize=36;exitX=-0.003;exitY=0.817;exitDx=0;exitDy=0;exitPerimeter=0;entryX=1.001;entryY=0.559;entryDx=0;entryDy=0;entryPerimeter=0;fontStyle=1" parent="1" source="29" target="134" edge="1">
                    <mxGeometry relative="1" as="geometry">
                        <mxPoint x="1230" y="2225" as="targetPoint"/>
                        <Array as="points">
                            <mxPoint x="1530" y="1080"/>
                            <mxPoint x="1530" y="2236"/>
                        </Array>
                    </mxGeometry>
                </mxCell>
                <mxCell id="215" value="&lt;font style=&quot;font-size: 36px;&quot;&gt;Permission and &lt;br&gt;approval &lt;br&gt;of catering order&lt;/font&gt;" style="edgeLabel;html=1;align=center;verticalAlign=middle;resizable=0;points=[];" parent="138" vertex="1" connectable="0">
                    <mxGeometry x="0.3558" y="-1" relative="1" as="geometry">
                        <mxPoint x="91" y="124" as="offset"/>
                    </mxGeometry>
                </mxCell>
                <mxCell id="332" value="&lt;font style=&quot;font-size: 36px;&quot;&gt;Permission and&lt;br&gt;approval&lt;br&gt;of catering order&lt;/font&gt;" style="edgeLabel;html=1;align=center;verticalAlign=middle;resizable=0;points=[];fontSize=24;" parent="138" vertex="1" connectable="0">
                    <mxGeometry x="-0.8065" y="4" relative="1" as="geometry">
                        <mxPoint x="-30" y="2" as="offset"/>
                    </mxGeometry>
                </mxCell>
                <mxCell id="571" style="edgeStyle=none;html=1;entryX=0.446;entryY=1.008;entryDx=0;entryDy=0;entryPerimeter=0;fontSize=36;exitX=0.334;exitY=-0.002;exitDx=0;exitDy=0;exitPerimeter=0;fontStyle=1" parent="1" source="29" target="555" edge="1">
                    <mxGeometry relative="1" as="geometry"/>
                </mxCell>
                <mxCell id="602" value="&lt;font style=&quot;font-size: 36px;&quot;&gt;Approval and Validation of Consumed Resources&lt;/font&gt;" style="edgeLabel;html=1;align=center;verticalAlign=middle;resizable=0;points=[];fontSize=24;" parent="571" vertex="1" connectable="0">
                    <mxGeometry x="0.6663" y="-1" relative="1" as="geometry">
                        <mxPoint x="332" y="16" as="offset"/>
                    </mxGeometry>
                </mxCell>
                <mxCell id="29" value="&lt;font style=&quot;&quot;&gt;&lt;font style=&quot;font-size: 36px;&quot;&gt;Business Owner&lt;/font&gt;&lt;br&gt;&lt;/font&gt;" style="shape=cube;whiteSpace=wrap;html=1;boundedLbl=1;backgroundOutline=1;darkOpacity=0.05;darkOpacity2=0.1;" parent="1" vertex="1">
                    <mxGeometry x="1820" y="870" width="320" height="210" as="geometry"/>
                </mxCell>
                <mxCell id="139" style="edgeStyle=none;html=1;entryX=1.003;entryY=0.844;entryDx=0;entryDy=0;fontSize=36;exitX=0.145;exitY=1.018;exitDx=0;exitDy=0;exitPerimeter=0;fontStyle=1;entryPerimeter=0;" parent="1" source="31" target="134" edge="1">
                    <mxGeometry relative="1" as="geometry">
                        <Array as="points">
                            <mxPoint x="1810" y="2300"/>
                        </Array>
                    </mxGeometry>
                </mxCell>
                <mxCell id="289" value="&lt;span style=&quot;font-size: 36px;&quot;&gt;Credentials for Handling&lt;br&gt;Catering Service&lt;br&gt;&lt;/span&gt;" style="edgeLabel;html=1;align=center;verticalAlign=middle;resizable=0;points=[];fontSize=24;" parent="139" vertex="1" connectable="0">
                    <mxGeometry x="0.7005" y="3" relative="1" as="geometry">
                        <mxPoint x="88" y="22" as="offset"/>
                    </mxGeometry>
                </mxCell>
                <mxCell id="181" style="edgeStyle=none;html=1;entryX=0;entryY=0.75;entryDx=0;entryDy=0;exitX=1.002;exitY=0.759;exitDx=0;exitDy=0;exitPerimeter=0;fontStyle=1" parent="1" source="31" target="177" edge="1">
                    <mxGeometry relative="1" as="geometry"/>
                </mxCell>
                <mxCell id="280" value="&lt;font style=&quot;&quot;&gt;&lt;font style=&quot;font-size: 36px;&quot;&gt;Business Status &amp;amp;&amp;nbsp;&lt;br&gt;Operations&amp;nbsp;report&lt;/font&gt;&lt;br&gt;&lt;/font&gt;" style="edgeLabel;html=1;align=center;verticalAlign=middle;resizable=0;points=[];fontSize=24;" parent="181" vertex="1" connectable="0">
                    <mxGeometry x="-0.5411" y="-1" relative="1" as="geometry">
                        <mxPoint x="96" y="82" as="offset"/>
                    </mxGeometry>
                </mxCell>
                <mxCell id="453" style="edgeStyle=none;html=1;entryX=0.5;entryY=0;entryDx=0;entryDy=0;fontSize=24;exitX=0.84;exitY=1;exitDx=0;exitDy=0;exitPerimeter=0;fontStyle=1" parent="1" source="31" target="160" edge="1">
                    <mxGeometry relative="1" as="geometry">
                        <Array as="points">
                            <mxPoint x="2040" y="1670"/>
                            <mxPoint x="2350" y="1800"/>
                        </Array>
                    </mxGeometry>
                </mxCell>
                <mxCell id="456" value="&lt;font style=&quot;font-size: 36px;&quot;&gt;Staff&lt;br&gt;&amp;nbsp;Identification&lt;br&gt;Details&lt;/font&gt;" style="edgeLabel;html=1;align=center;verticalAlign=middle;resizable=0;points=[];fontSize=24;" parent="453" vertex="1" connectable="0">
                    <mxGeometry x="-0.1463" y="-7" relative="1" as="geometry">
                        <mxPoint x="51" y="-3" as="offset"/>
                    </mxGeometry>
                </mxCell>
                <mxCell id="515" style="edgeStyle=none;html=1;entryX=0.369;entryY=0.996;entryDx=0;entryDy=0;fontSize=24;fillColor=#FFFFFF;entryPerimeter=0;fontStyle=1" parent="1" source="31" target="507" edge="1">
                    <mxGeometry relative="1" as="geometry">
                        <Array as="points">
                            <mxPoint x="2020" y="1160"/>
                            <mxPoint x="2550" y="1160"/>
                        </Array>
                    </mxGeometry>
                </mxCell>
                <mxCell id="521" value="&lt;font style=&quot;font-size: 36px;&quot;&gt;Orders and Instructions&lt;/font&gt;" style="edgeLabel;html=1;align=center;verticalAlign=middle;resizable=0;points=[];fontSize=24;" parent="515" vertex="1" connectable="0">
                    <mxGeometry x="-0.521" y="7" relative="1" as="geometry">
                        <mxPoint x="103" y="7" as="offset"/>
                    </mxGeometry>
                </mxCell>
                <mxCell id="31" value="&lt;font style=&quot;&quot;&gt;&lt;font style=&quot;font-size: 36px;&quot;&gt;Management Officer&lt;/font&gt;&lt;br&gt;&lt;/font&gt;" style="shape=cube;whiteSpace=wrap;html=1;boundedLbl=1;backgroundOutline=1;darkOpacity=0.05;darkOpacity2=0.1;" parent="1" vertex="1">
                    <mxGeometry x="1780" y="1300" width="310" height="209.82" as="geometry"/>
                </mxCell>
                <mxCell id="72" style="edgeStyle=none;html=1;exitX=0.75;exitY=1;exitDx=0;exitDy=0;entryX=0.579;entryY=-0.004;entryDx=0;entryDy=0;entryPerimeter=0;fontStyle=1" parent="1" source="33" target="46" edge="1">
                    <mxGeometry relative="1" as="geometry">
                        <mxPoint x="99.07000000000016" y="1050" as="targetPoint"/>
                    </mxGeometry>
                </mxCell>
                <mxCell id="292" value="&lt;font style=&quot;font-size: 36px;&quot;&gt;Room Lodging Choice&lt;/font&gt;" style="edgeLabel;html=1;align=center;verticalAlign=middle;resizable=0;points=[];fontSize=24;" parent="72" vertex="1" connectable="0">
                    <mxGeometry x="-0.3224" y="1" relative="1" as="geometry">
                        <mxPoint x="104" y="32" as="offset"/>
                    </mxGeometry>
                </mxCell>
                <mxCell id="75" style="edgeStyle=none;html=1;entryX=0.75;entryY=0;entryDx=0;entryDy=0;exitX=0;exitY=0.5;exitDx=0;exitDy=0;fontStyle=1" parent="1" source="33" target="26" edge="1">
                    <mxGeometry relative="1" as="geometry">
                        <Array as="points">
                            <mxPoint x="-557" y="990"/>
                        </Array>
                    </mxGeometry>
                </mxCell>
                <mxCell id="294" value="&lt;font style=&quot;font-size: 36px;&quot;&gt;Breakfast&amp;nbsp;&lt;br&gt;Combo&amp;nbsp;&lt;br&gt;Choice&lt;/font&gt;" style="edgeLabel;html=1;align=center;verticalAlign=middle;resizable=0;points=[];fontSize=24;" parent="75" vertex="1" connectable="0">
                    <mxGeometry x="-0.336" y="-1" relative="1" as="geometry">
                        <mxPoint x="-184" y="111" as="offset"/>
                    </mxGeometry>
                </mxCell>
                <mxCell id="76" style="edgeStyle=none;html=1;fontStyle=1" parent="1" source="33" edge="1">
                    <mxGeometry relative="1" as="geometry">
                        <mxPoint x="920" y="1080" as="targetPoint"/>
                        <Array as="points">
                            <mxPoint x="920" y="980"/>
                        </Array>
                    </mxGeometry>
                </mxCell>
                <mxCell id="293" value="&lt;font style=&quot;font-size: 36px;&quot;&gt;Catering Service Choice&lt;/font&gt;" style="edgeLabel;html=1;align=center;verticalAlign=middle;resizable=0;points=[];fontSize=24;" parent="76" vertex="1" connectable="0">
                    <mxGeometry x="-0.4049" relative="1" as="geometry">
                        <mxPoint x="116" y="-7" as="offset"/>
                    </mxGeometry>
                </mxCell>
                <mxCell id="470" style="edgeStyle=none;html=1;entryX=0.5;entryY=1;entryDx=0;entryDy=0;fontSize=24;exitX=0.408;exitY=-0.002;exitDx=0;exitDy=0;exitPerimeter=0;fontStyle=1" parent="1" source="33" target="17" edge="1">
                    <mxGeometry relative="1" as="geometry"/>
                </mxCell>
                <mxCell id="471" value="&lt;font style=&quot;font-size: 36px;&quot;&gt;Management Feedback&amp;nbsp;from proceeding processes&lt;/font&gt;" style="edgeLabel;html=1;align=center;verticalAlign=middle;resizable=0;points=[];fontSize=24;" parent="470" vertex="1" connectable="0">
                    <mxGeometry x="0.2987" y="-2" relative="1" as="geometry">
                        <mxPoint x="358" y="23" as="offset"/>
                    </mxGeometry>
                </mxCell>
                <mxCell id="33" value="&lt;font style=&quot;font-size: 36px;&quot;&gt;Choose Service to Avail&lt;/font&gt;" style="rounded=1;whiteSpace=wrap;html=1;fontSize=24;" parent="1" vertex="1">
                    <mxGeometry x="-180" y="920" width="450" height="140" as="geometry"/>
                </mxCell>
                <mxCell id="34" value="" style="endArrow=none;html=1;fontSize=24;exitX=0;exitY=0.276;exitDx=0;exitDy=0;exitPerimeter=0;entryX=1.001;entryY=0.28;entryDx=0;entryDy=0;entryPerimeter=0;fontStyle=1" parent="1" source="33" target="33" edge="1">
                    <mxGeometry width="50" height="50" relative="1" as="geometry">
                        <mxPoint x="145" y="880" as="sourcePoint"/>
                        <mxPoint x="300" y="940" as="targetPoint"/>
                    </mxGeometry>
                </mxCell>
                <mxCell id="444" value="4.0" style="edgeLabel;html=1;align=center;verticalAlign=middle;resizable=0;points=[];fontSize=24;" parent="34" vertex="1" connectable="0">
                    <mxGeometry x="-0.7344" y="1" relative="1" as="geometry">
                        <mxPoint x="-12" y="-17" as="offset"/>
                    </mxGeometry>
                </mxCell>
                <mxCell id="70" value="&lt;font style=&quot;&quot;&gt;&lt;font style=&quot;font-size: 36px;&quot;&gt;Request for Availing Services&lt;/font&gt;&lt;br&gt;&lt;/font&gt;" style="edgeStyle=none;html=1;exitX=0.105;exitY=1.004;exitDx=0;exitDy=0;entryX=0.164;entryY=-0.008;entryDx=0;entryDy=0;entryPerimeter=0;exitPerimeter=0;fontStyle=1" parent="1" source="37" target="17" edge="1">
                    <mxGeometry x="-0.5925" y="243" relative="1" as="geometry">
                        <mxPoint x="-1" as="offset"/>
                    </mxGeometry>
                </mxCell>
                <mxCell id="96" style="edgeStyle=none;html=1;entryX=0.5;entryY=1;entryDx=0;entryDy=0;exitX=0.5;exitY=0;exitDx=0;exitDy=0;fontStyle=1" parent="1" source="37" target="6" edge="1">
                    <mxGeometry relative="1" as="geometry"/>
                </mxCell>
                <mxCell id="231" value="&lt;font style=&quot;font-size: 48px;&quot;&gt;Answers&lt;/font&gt;" style="edgeLabel;html=1;align=center;verticalAlign=middle;resizable=0;points=[];fontSize=24;" parent="96" vertex="1" connectable="0">
                    <mxGeometry x="0.1654" y="-1" relative="1" as="geometry">
                        <mxPoint x="99" y="5" as="offset"/>
                    </mxGeometry>
                </mxCell>
                <mxCell id="37" value="&lt;font style=&quot;font-size: 36px;&quot;&gt;Inquire for Available Business Services and Information&lt;/font&gt;" style="rounded=1;whiteSpace=wrap;html=1;fontSize=24;" parent="1" vertex="1">
                    <mxGeometry x="-130.62" y="410" width="500" height="160" as="geometry"/>
                </mxCell>
                <mxCell id="38" value="" style="endArrow=none;html=1;fontSize=24;exitX=0;exitY=0.25;exitDx=0;exitDy=0;entryX=1;entryY=0.25;entryDx=0;entryDy=0;fontStyle=1" parent="1" source="37" target="37" edge="1">
                    <mxGeometry width="50" height="50" relative="1" as="geometry">
                        <mxPoint x="-190" y="730" as="sourcePoint"/>
                        <mxPoint x="-140" y="680" as="targetPoint"/>
                    </mxGeometry>
                </mxCell>
                <mxCell id="442" value="2.0" style="edgeLabel;html=1;align=center;verticalAlign=middle;resizable=0;points=[];fontSize=24;" parent="38" vertex="1" connectable="0">
                    <mxGeometry x="-0.224" y="2" relative="1" as="geometry">
                        <mxPoint x="-106" y="-15" as="offset"/>
                    </mxGeometry>
                </mxCell>
                <mxCell id="99" style="edgeStyle=none;html=1;exitX=0.75;exitY=0;exitDx=0;exitDy=0;entryX=-0.003;entryY=0.707;entryDx=0;entryDy=0;entryPerimeter=0;fontStyle=1" parent="1" source="39" target="5" edge="1">
                    <mxGeometry relative="1" as="geometry">
                        <Array as="points">
                            <mxPoint x="-640" y="10"/>
                            <mxPoint x="-390" y="-30"/>
                        </Array>
                        <mxPoint x="-80" y="-190" as="targetPoint"/>
                        <mxPoint x="-740" y="60" as="sourcePoint"/>
                    </mxGeometry>
                </mxCell>
                <mxCell id="312" value="&lt;font style=&quot;font-size: 36px;&quot;&gt;Management Response&lt;/font&gt;" style="edgeLabel;html=1;align=center;verticalAlign=middle;resizable=0;points=[];" parent="99" vertex="1" connectable="0">
                    <mxGeometry x="-0.2084" y="1" relative="1" as="geometry">
                        <mxPoint x="-5" y="-1" as="offset"/>
                    </mxGeometry>
                </mxCell>
                <mxCell id="39" value="&lt;font style=&quot;font-size: 36px;&quot;&gt;Other purposes for contact which is &lt;br&gt;non-transactional or part of business process&amp;nbsp;&lt;/font&gt;" style="rounded=1;whiteSpace=wrap;html=1;fontSize=24;" parent="1" vertex="1">
                    <mxGeometry x="-1100" y="70" width="610" height="270" as="geometry"/>
                </mxCell>
                <mxCell id="40" value="" style="endArrow=none;html=1;fontSize=24;exitX=0;exitY=0.25;exitDx=0;exitDy=0;entryX=1;entryY=0.25;entryDx=0;entryDy=0;fontStyle=1" parent="1" source="39" target="39" edge="1">
                    <mxGeometry width="50" height="50" relative="1" as="geometry">
                        <mxPoint x="560" y="790" as="sourcePoint"/>
                        <mxPoint x="610" y="740" as="targetPoint"/>
                    </mxGeometry>
                </mxCell>
                <mxCell id="462" value="2.2" style="edgeLabel;html=1;align=center;verticalAlign=middle;resizable=0;points=[];fontSize=24;" parent="40" vertex="1" connectable="0">
                    <mxGeometry x="-0.7589" y="-2" relative="1" as="geometry">
                        <mxPoint x="-4" y="-29" as="offset"/>
                    </mxGeometry>
                </mxCell>
                <mxCell id="100" style="edgeStyle=none;html=1;exitX=1;exitY=0.5;exitDx=0;exitDy=0;fontStyle=1" parent="1" source="46" edge="1">
                    <mxGeometry relative="1" as="geometry">
                        <mxPoint x="295" y="1265.03125" as="targetPoint"/>
                    </mxGeometry>
                </mxCell>
                <mxCell id="154" style="edgeStyle=none;html=1;entryX=0.776;entryY=1;entryDx=0;entryDy=0;fontSize=36;exitX=0;exitY=0.5;exitDx=0;exitDy=0;entryPerimeter=0;fontStyle=1" parent="1" source="46" target="102" edge="1">
                    <mxGeometry relative="1" as="geometry">
                        <Array as="points">
                            <mxPoint x="-270" y="1310"/>
                        </Array>
                        <mxPoint x="-100" y="1300" as="sourcePoint"/>
                        <mxPoint x="-232.88000000000014" y="552.4000000000001" as="targetPoint"/>
                    </mxGeometry>
                </mxCell>
                <mxCell id="225" value="&lt;font style=&quot;&quot;&gt;&lt;font style=&quot;font-size: 36px;&quot;&gt;price rates and &lt;br&gt;payment options&lt;/font&gt;&lt;span style=&quot;font-size: 24px; background-color: rgb(42, 37, 47);&quot;&gt;&lt;br&gt;&lt;/span&gt;&lt;/font&gt;" style="edgeLabel;html=1;align=center;verticalAlign=middle;resizable=0;points=[];fontSize=24;" parent="154" vertex="1" connectable="0">
                    <mxGeometry x="-0.4618" y="-1" relative="1" as="geometry">
                        <mxPoint x="94" y="-28" as="offset"/>
                    </mxGeometry>
                </mxCell>
                <mxCell id="286" style="edgeStyle=none;html=1;fontSize=30;entryX=0;entryY=0.5;entryDx=0;entryDy=0;exitX=0.036;exitY=0.994;exitDx=0;exitDy=0;exitPerimeter=0;fontStyle=1" parent="1" source="46" target="53" edge="1">
                    <mxGeometry relative="1" as="geometry">
                        <mxPoint x="-159.9999999999999" y="1640" as="targetPoint"/>
                        <mxPoint x="-213.39462000000037" y="1500.81" as="sourcePoint"/>
                        <Array as="points">
                            <mxPoint x="-200" y="1730"/>
                        </Array>
                    </mxGeometry>
                </mxCell>
                <mxCell id="287" value="&lt;font style=&quot;font-size: 36px;&quot;&gt;Narrowed Down Information &lt;br&gt;about Customer's Choice of Room&lt;/font&gt;" style="edgeLabel;html=1;align=center;verticalAlign=middle;resizable=0;points=[];fontSize=30;" parent="286" vertex="1" connectable="0">
                    <mxGeometry x="-0.1279" y="-1" relative="1" as="geometry">
                        <mxPoint x="260" y="-60" as="offset"/>
                    </mxGeometry>
                </mxCell>
                <mxCell id="46" value="&lt;font style=&quot;font-size: 36px;&quot;&gt;Ask for customer's room of choice, &lt;br&gt;duration stay, and preferred date of room lodging&lt;/font&gt;" style="rounded=1;whiteSpace=wrap;html=1;fontSize=24;" parent="1" vertex="1">
                    <mxGeometry x="-219.69" y="1230" width="639.69" height="270" as="geometry"/>
                </mxCell>
                <mxCell id="47" value="" style="endArrow=none;html=1;fontSize=24;exitX=0;exitY=0.25;exitDx=0;exitDy=0;entryX=1;entryY=0.25;entryDx=0;entryDy=0;fontStyle=1" parent="1" source="46" target="46" edge="1">
                    <mxGeometry width="50" height="50" relative="1" as="geometry">
                        <mxPoint x="140" y="1270" as="sourcePoint"/>
                        <mxPoint x="190" y="1220" as="targetPoint"/>
                    </mxGeometry>
                </mxCell>
                <mxCell id="445" value="&lt;font style=&quot;font-size: 36px;&quot;&gt;5.0&lt;/font&gt;" style="edgeLabel;html=1;align=center;verticalAlign=middle;resizable=0;points=[];fontSize=24;" parent="47" vertex="1" connectable="0">
                    <mxGeometry x="-0.5914" y="6" relative="1" as="geometry">
                        <mxPoint x="-71" y="-31" as="offset"/>
                    </mxGeometry>
                </mxCell>
                <mxCell id="65" style="edgeStyle=none;html=1;entryX=0.139;entryY=0.002;entryDx=0;entryDy=0;entryPerimeter=0;exitX=0.122;exitY=1.015;exitDx=0;exitDy=0;exitPerimeter=0;fontStyle=1" parent="1" source="48" target="28" edge="1">
                    <mxGeometry relative="1" as="geometry">
                        <mxPoint x="530" y="240" as="sourcePoint"/>
                    </mxGeometry>
                </mxCell>
                <mxCell id="314" value="&lt;font style=&quot;font-size: 36px;&quot;&gt;Customer&lt;br&gt;Inquiry&lt;/font&gt;" style="edgeLabel;html=1;align=center;verticalAlign=middle;resizable=0;points=[];fontSize=24;" parent="65" vertex="1" connectable="0">
                    <mxGeometry x="-0.2113" y="-3" relative="1" as="geometry">
                        <mxPoint x="-56" y="15" as="offset"/>
                    </mxGeometry>
                </mxCell>
                <mxCell id="66" style="edgeStyle=none;html=1;exitX=0.75;exitY=0;exitDx=0;exitDy=0;entryX=1;entryY=0.736;entryDx=0;entryDy=0;entryPerimeter=0;fontStyle=1" parent="1" source="48" target="5" edge="1">
                    <mxGeometry relative="1" as="geometry">
                        <Array as="points">
                            <mxPoint x="1113" y="-70"/>
                        </Array>
                    </mxGeometry>
                </mxCell>
                <mxCell id="306" value="&lt;font style=&quot;font-size: 48px;&quot;&gt;Feedback to Inquiry&lt;/font&gt;" style="edgeLabel;html=1;align=center;verticalAlign=middle;resizable=0;points=[];fontSize=24;" parent="66" vertex="1" connectable="0">
                    <mxGeometry x="0.1447" y="1" relative="1" as="geometry">
                        <mxPoint x="58" y="8" as="offset"/>
                    </mxGeometry>
                </mxCell>
                <mxCell id="48" value="&lt;font style=&quot;font-size: 36px;&quot;&gt;Inquire for Information&lt;/font&gt;" style="rounded=1;whiteSpace=wrap;html=1;fontSize=24;" parent="1" vertex="1">
                    <mxGeometry x="733.12" y="90" width="510" height="150" as="geometry"/>
                </mxCell>
                <mxCell id="49" value="" style="endArrow=none;html=1;fontSize=24;exitX=0;exitY=0.25;exitDx=0;exitDy=0;entryX=1;entryY=0.25;entryDx=0;entryDy=0;fontStyle=1" parent="1" source="48" target="48" edge="1">
                    <mxGeometry width="50" height="50" relative="1" as="geometry">
                        <mxPoint x="-772.5" y="790" as="sourcePoint"/>
                        <mxPoint x="-722.5" y="740" as="targetPoint"/>
                    </mxGeometry>
                </mxCell>
                <mxCell id="457" value="2.1" style="edgeLabel;html=1;align=center;verticalAlign=middle;resizable=0;points=[];fontSize=24;" parent="49" vertex="1" connectable="0">
                    <mxGeometry x="-0.8561" y="-1" relative="1" as="geometry">
                        <mxPoint x="3" y="-18" as="offset"/>
                    </mxGeometry>
                </mxCell>
                <mxCell id="88" style="edgeStyle=none;html=1;entryX=0.211;entryY=-0.003;entryDx=0;entryDy=0;entryPerimeter=0;fontStyle=1;exitX=0.5;exitY=1;exitDx=0;exitDy=0;" parent="1" target="55" edge="1" source="53">
                    <mxGeometry relative="1" as="geometry">
                        <mxPoint x="-1" y="1780" as="sourcePoint"/>
                    </mxGeometry>
                </mxCell>
                <mxCell id="219" value="&lt;font style=&quot;font-size: 36px;&quot;&gt;Room Id of Available rooms&lt;/font&gt;" style="edgeLabel;html=1;align=center;verticalAlign=middle;resizable=0;points=[];fontSize=24;" parent="88" vertex="1" connectable="0">
                    <mxGeometry x="-0.4264" y="-2" relative="1" as="geometry">
                        <mxPoint x="53" y="23" as="offset"/>
                    </mxGeometry>
                </mxCell>
                <mxCell id="53" value="&lt;font style=&quot;font-size: 36px;&quot;&gt;Check the transaction logs for room availability.&lt;/font&gt;" style="rounded=1;whiteSpace=wrap;html=1;fontSize=24;" parent="1" vertex="1">
                    <mxGeometry x="-132.96" y="1670" width="442.96" height="200" as="geometry"/>
                </mxCell>
                <mxCell id="54" value="" style="endArrow=none;html=1;fontSize=24;exitX=0;exitY=0.25;exitDx=0;exitDy=0;entryX=1;entryY=0.25;entryDx=0;entryDy=0;fontStyle=1" parent="1" source="53" target="53" edge="1">
                    <mxGeometry width="50" height="50" relative="1" as="geometry">
                        <mxPoint x="145" y="1320" as="sourcePoint"/>
                        <mxPoint x="195" y="1270" as="targetPoint"/>
                    </mxGeometry>
                </mxCell>
                <mxCell id="447" value="6.0" style="edgeLabel;html=1;align=center;verticalAlign=middle;resizable=0;points=[];fontSize=24;" parent="54" vertex="1" connectable="0">
                    <mxGeometry x="-0.7615" y="2" relative="1" as="geometry">
                        <mxPoint x="12" y="-18" as="offset"/>
                    </mxGeometry>
                </mxCell>
                <mxCell id="91" value="&lt;font style=&quot;font-size: 36px;&quot;&gt;Room id and customer lodging information&amp;nbsp;&amp;nbsp;&lt;/font&gt;" style="edgeStyle=none;html=1;entryX=0.211;entryY=0.003;entryDx=0;entryDy=0;entryPerimeter=0;exitX=0.209;exitY=1.007;exitDx=0;exitDy=0;exitPerimeter=0;fontStyle=1" parent="1" source="55" target="58" edge="1">
                    <mxGeometry x="-1" y="120" relative="1" as="geometry">
                        <mxPoint x="1" y="-3" as="offset"/>
                    </mxGeometry>
                </mxCell>
                <mxCell id="153" style="edgeStyle=none;html=1;entryX=0.658;entryY=1.015;entryDx=0;entryDy=0;fontSize=36;exitX=0;exitY=0.57;exitDx=0;exitDy=0;exitPerimeter=0;entryPerimeter=0;fontStyle=1" parent="1" source="55" target="102" edge="1">
                    <mxGeometry relative="1" as="geometry">
                        <Array as="points">
                            <mxPoint x="-290" y="2080"/>
                        </Array>
                        <mxPoint x="-75.61999999999989" y="2050" as="sourcePoint"/>
                        <mxPoint x="-225" y="590" as="targetPoint"/>
                    </mxGeometry>
                </mxCell>
                <mxCell id="223" value="&lt;font style=&quot;font-size: 36px;&quot;&gt;Room &lt;br&gt;Availability &lt;br&gt;Status&lt;/font&gt;" style="edgeLabel;html=1;align=center;verticalAlign=middle;resizable=0;points=[];fontSize=24;" parent="153" vertex="1" connectable="0">
                    <mxGeometry x="-0.7348" relative="1" as="geometry">
                        <mxPoint x="20" y="-149" as="offset"/>
                    </mxGeometry>
                </mxCell>
                <mxCell id="55" value="&lt;font style=&quot;font-size: 36px;&quot;&gt;Find a Room that best fits the Customers' Request and Preferences&lt;/font&gt;" style="rounded=1;whiteSpace=wrap;html=1;fontSize=24;" parent="1" vertex="1">
                    <mxGeometry x="-60" y="2000" width="720" height="160" as="geometry"/>
                </mxCell>
                <mxCell id="56" value="" style="endArrow=none;html=1;fontSize=24;exitX=0;exitY=0.25;exitDx=0;exitDy=0;entryX=1;entryY=0.25;entryDx=0;entryDy=0;fontStyle=1" parent="1" source="55" target="55" edge="1">
                    <mxGeometry width="50" height="50" relative="1" as="geometry">
                        <mxPoint x="146.25" y="1560" as="sourcePoint"/>
                        <mxPoint x="196.25" y="1510" as="targetPoint"/>
                    </mxGeometry>
                </mxCell>
                <mxCell id="448" value="7.0" style="edgeLabel;html=1;align=center;verticalAlign=middle;resizable=0;points=[];fontSize=24;" parent="56" vertex="1" connectable="0">
                    <mxGeometry x="-0.5642" y="-1" relative="1" as="geometry">
                        <mxPoint x="-43" y="-21" as="offset"/>
                    </mxGeometry>
                </mxCell>
                <mxCell id="92" style="edgeStyle=none;html=1;entryX=0.12;entryY=-0.019;entryDx=0;entryDy=0;entryPerimeter=0;exitX=0.183;exitY=1.018;exitDx=0;exitDy=0;exitPerimeter=0;fontStyle=1" parent="1" source="58" target="77" edge="1">
                    <mxGeometry relative="1" as="geometry">
                        <mxPoint x="-8.966079999999693" y="2360" as="targetPoint"/>
                    </mxGeometry>
                </mxCell>
                <mxCell id="241" value="&lt;font style=&quot;font-size: 36px;&quot;&gt;Approved Room Lodging Details &lt;br&gt;and Information&amp;nbsp; registration forms&lt;/font&gt;" style="edgeLabel;html=1;align=center;verticalAlign=middle;resizable=0;points=[];fontSize=24;" parent="92" vertex="1" connectable="0">
                    <mxGeometry x="-0.2771" y="1" relative="1" as="geometry">
                        <mxPoint x="257" y="11" as="offset"/>
                    </mxGeometry>
                </mxCell>
                <mxCell id="58" value="&lt;font style=&quot;font-size: 36px;&quot;&gt;Finalization of room lodging details with customer for clarifications&lt;/font&gt;" style="rounded=1;whiteSpace=wrap;html=1;fontSize=24;" parent="1" vertex="1">
                    <mxGeometry x="-101.47999999999999" y="2270" width="661.24" height="200" as="geometry"/>
                </mxCell>
                <mxCell id="59" value="" style="endArrow=none;html=1;fontSize=24;exitX=0;exitY=0.25;exitDx=0;exitDy=0;entryX=1;entryY=0.25;entryDx=0;entryDy=0;fontStyle=1" parent="1" source="58" target="58" edge="1">
                    <mxGeometry width="50" height="50" relative="1" as="geometry">
                        <mxPoint x="145" y="1770" as="sourcePoint"/>
                        <mxPoint x="195" y="1720" as="targetPoint"/>
                    </mxGeometry>
                </mxCell>
                <mxCell id="449" value="8.0" style="edgeLabel;html=1;align=center;verticalAlign=middle;resizable=0;points=[];fontSize=24;" parent="59" vertex="1" connectable="0">
                    <mxGeometry x="-0.2676" relative="1" as="geometry">
                        <mxPoint x="-111" y="-20" as="offset"/>
                    </mxGeometry>
                </mxCell>
                <mxCell id="124" style="edgeStyle=none;html=1;entryX=0.533;entryY=1.015;entryDx=0;entryDy=0;fontSize=36;exitX=0;exitY=0.5;exitDx=0;exitDy=0;entryPerimeter=0;fontStyle=1" parent="1" source="58" target="102" edge="1">
                    <mxGeometry relative="1" as="geometry">
                        <Array as="points">
                            <mxPoint x="-370" y="2360"/>
                        </Array>
                        <mxPoint x="-135" y="2100" as="sourcePoint"/>
                        <mxPoint x="-260" y="440" as="targetPoint"/>
                    </mxGeometry>
                </mxCell>
                <mxCell id="224" value="&lt;font style=&quot;font-size: 36px;&quot;&gt;Room Lodging Service&lt;br&gt;&amp;nbsp;details for Finalization&lt;/font&gt;" style="edgeLabel;html=1;align=center;verticalAlign=middle;resizable=0;points=[];fontSize=24;" parent="124" vertex="1" connectable="0">
                    <mxGeometry x="-0.8002" y="2" relative="1" as="geometry">
                        <mxPoint x="-29" y="-75" as="offset"/>
                    </mxGeometry>
                </mxCell>
                <mxCell id="79" style="edgeStyle=none;html=1;exitX=0.196;exitY=1.002;exitDx=0;exitDy=0;exitPerimeter=0;entryX=0.353;entryY=0;entryDx=0;entryDy=0;entryPerimeter=0;fontStyle=1" parent="1" source="77" target="13" edge="1">
                    <mxGeometry relative="1" as="geometry">
                        <mxPoint x="40" y="3180" as="targetPoint"/>
                    </mxGeometry>
                </mxCell>
                <mxCell id="258" value="&lt;font style=&quot;font-size: 36px;&quot;&gt;Room Lodging &lt;br&gt;Registration Card&amp;nbsp;&lt;br&gt;Management Copy&lt;/font&gt;" style="edgeLabel;html=1;align=center;verticalAlign=middle;resizable=0;points=[];fontSize=36;" parent="79" vertex="1" connectable="0">
                    <mxGeometry x="0.3549" y="-2" relative="1" as="geometry">
                        <mxPoint x="-127" y="-39" as="offset"/>
                    </mxGeometry>
                </mxCell>
                <mxCell id="80" style="edgeStyle=none;html=1;exitX=0.75;exitY=1;exitDx=0;exitDy=0;entryX=0;entryY=0.5;entryDx=0;entryDy=0;fontStyle=1" parent="1" source="77" target="8" edge="1">
                    <mxGeometry relative="1" as="geometry">
                        <Array as="points">
                            <mxPoint x="520" y="3230"/>
                            <mxPoint x="520" y="3260"/>
                        </Array>
                    </mxGeometry>
                </mxCell>
                <mxCell id="233" value="&lt;font style=&quot;font-size: 36px;&quot;&gt;Room &lt;br&gt;Lodging &lt;br&gt;Details&lt;/font&gt;" style="edgeLabel;html=1;align=center;verticalAlign=middle;resizable=0;points=[];fontSize=24;" parent="80" vertex="1" connectable="0">
                    <mxGeometry x="-0.0857" y="5" relative="1" as="geometry">
                        <mxPoint x="5" y="95" as="offset"/>
                    </mxGeometry>
                </mxCell>
                <mxCell id="129" style="edgeStyle=none;html=1;fontSize=36;exitX=0;exitY=0.75;exitDx=0;exitDy=0;entryX=0.565;entryY=0.006;entryDx=0;entryDy=0;entryPerimeter=0;fontStyle=1" parent="1" source="77" target="127" edge="1">
                    <mxGeometry relative="1" as="geometry">
                        <Array as="points">
                            <mxPoint x="-610" y="2740"/>
                        </Array>
                    </mxGeometry>
                </mxCell>
                <mxCell id="248" value="&lt;font style=&quot;font-size: 36px;&quot;&gt;Total Cost of room lodging&lt;/font&gt;" style="edgeLabel;html=1;align=center;verticalAlign=middle;resizable=0;points=[];fontSize=30;" parent="129" vertex="1" connectable="0">
                    <mxGeometry x="-0.0203" y="1" relative="1" as="geometry">
                        <mxPoint x="60" y="-1" as="offset"/>
                    </mxGeometry>
                </mxCell>
                <mxCell id="77" value="&lt;font style=&quot;font-size: 36px;&quot;&gt;Room Lodging Success with Forms Fill-up &lt;br&gt;and transaction record keeping&lt;/font&gt;" style="rounded=1;whiteSpace=wrap;html=1;fontSize=24;" parent="1" vertex="1">
                    <mxGeometry x="-40" y="2630" width="710" height="160" as="geometry"/>
                </mxCell>
                <mxCell id="78" value="" style="endArrow=none;html=1;fontSize=24;exitX=0;exitY=0.25;exitDx=0;exitDy=0;entryX=1;entryY=0.25;entryDx=0;entryDy=0;fontStyle=1" parent="1" source="77" target="77" edge="1">
                    <mxGeometry width="50" height="50" relative="1" as="geometry">
                        <mxPoint x="148.12" y="2360" as="sourcePoint"/>
                        <mxPoint x="198.12" y="2310" as="targetPoint"/>
                    </mxGeometry>
                </mxCell>
                <mxCell id="450" value="9.0" style="edgeLabel;html=1;align=center;verticalAlign=middle;resizable=0;points=[];fontSize=24;" parent="78" vertex="1" connectable="0">
                    <mxGeometry x="-0.5946" y="1" relative="1" as="geometry">
                        <mxPoint x="-35" y="-19" as="offset"/>
                    </mxGeometry>
                </mxCell>
                <mxCell id="105" style="edgeStyle=none;html=1;entryX=0;entryY=0.75;entryDx=0;entryDy=0;exitX=0.451;exitY=0.004;exitDx=0;exitDy=0;exitPerimeter=0;fontStyle=1" parent="1" source="102" target="6" edge="1">
                    <mxGeometry relative="1" as="geometry">
                        <Array as="points">
                            <mxPoint x="-350" y="340"/>
                        </Array>
                        <mxPoint x="-350" y="440" as="sourcePoint"/>
                    </mxGeometry>
                </mxCell>
                <mxCell id="244" value="&lt;font style=&quot;font-size: 36px;&quot;&gt;transaction Information&amp;nbsp;&lt;/font&gt;" style="edgeLabel;html=1;align=center;verticalAlign=middle;resizable=0;points=[];fontSize=24;" parent="105" vertex="1" connectable="0">
                    <mxGeometry x="-0.3025" y="-1" relative="1" as="geometry">
                        <mxPoint x="-54" y="51" as="offset"/>
                    </mxGeometry>
                </mxCell>
                <mxCell id="102" value="&lt;font style=&quot;font-size: 36px;&quot;&gt;Provide feedback to customer about transaction details&lt;/font&gt;" style="rounded=1;whiteSpace=wrap;html=1;fontSize=24;" parent="1" vertex="1">
                    <mxGeometry x="-770" y="460" width="610" height="160" as="geometry"/>
                </mxCell>
                <mxCell id="103" value="" style="endArrow=none;html=1;fontSize=24;exitX=0;exitY=0.25;exitDx=0;exitDy=0;entryX=1;entryY=0.25;entryDx=0;entryDy=0;fontStyle=1" parent="1" source="102" target="102" edge="1">
                    <mxGeometry width="50" height="50" relative="1" as="geometry">
                        <mxPoint x="440" y="790" as="sourcePoint"/>
                        <mxPoint x="490" y="740" as="targetPoint"/>
                    </mxGeometry>
                </mxCell>
                <mxCell id="485" value="3.1" style="edgeLabel;html=1;align=center;verticalAlign=middle;resizable=0;points=[];fontSize=24;" parent="103" vertex="1" connectable="0">
                    <mxGeometry x="-0.7014" y="-3" relative="1" as="geometry">
                        <mxPoint x="-7" y="-23" as="offset"/>
                    </mxGeometry>
                </mxCell>
                <mxCell id="151" style="edgeStyle=none;html=1;fontSize=36;exitX=0.25;exitY=1;exitDx=0;exitDy=0;entryX=0.396;entryY=0.003;entryDx=0;entryDy=0;entryPerimeter=0;fontStyle=1" parent="1" source="106" target="127" edge="1">
                    <mxGeometry relative="1" as="geometry"/>
                </mxCell>
                <mxCell id="257" value="&lt;font style=&quot;font-size: 36px;&quot;&gt;Total Cost &lt;br&gt;of&amp;nbsp;Breakfast &lt;br&gt;Combo meal&lt;/font&gt;" style="edgeLabel;html=1;align=center;verticalAlign=middle;resizable=0;points=[];fontSize=30;" parent="151" vertex="1" connectable="0">
                    <mxGeometry x="0.3867" y="-2" relative="1" as="geometry">
                        <mxPoint x="29" y="-545" as="offset"/>
                    </mxGeometry>
                </mxCell>
                <mxCell id="152" style="edgeStyle=none;html=1;entryX=0.103;entryY=1.02;entryDx=0;entryDy=0;fontSize=36;exitX=0;exitY=0.5;exitDx=0;exitDy=0;entryPerimeter=0;fontStyle=1" parent="1" source="106" target="8" edge="1">
                    <mxGeometry relative="1" as="geometry">
                        <Array as="points">
                            <mxPoint x="-1020" y="1840"/>
                            <mxPoint x="-1020" y="3460"/>
                            <mxPoint x="680" y="3480"/>
                        </Array>
                    </mxGeometry>
                </mxCell>
                <mxCell id="259" value="Order Details for Breakfast combo&amp;nbsp;" style="edgeLabel;html=1;align=center;verticalAlign=middle;resizable=0;points=[];fontSize=36;" parent="152" vertex="1" connectable="0">
                    <mxGeometry x="0.4881" relative="1" as="geometry">
                        <mxPoint x="-748" y="30" as="offset"/>
                    </mxGeometry>
                </mxCell>
                <mxCell id="266" value="&lt;font style=&quot;font-size: 36px;&quot;&gt;Breakfast &lt;br&gt;combo &lt;br&gt;Order&lt;br&gt;Details&lt;/font&gt;" style="edgeLabel;html=1;align=center;verticalAlign=middle;resizable=0;points=[];fontSize=36;" parent="152" vertex="1" connectable="0">
                    <mxGeometry x="-0.8053" y="2" relative="1" as="geometry">
                        <mxPoint x="-29" y="41" as="offset"/>
                    </mxGeometry>
                </mxCell>
                <mxCell id="106" value="&lt;font style=&quot;font-size: 36px;&quot;&gt;Customer Select&lt;br&gt;Breakfast Combo Variation&lt;/font&gt;" style="rounded=1;whiteSpace=wrap;html=1;fontSize=24;" parent="1" vertex="1">
                    <mxGeometry x="-830" y="1615" width="390" height="310" as="geometry"/>
                </mxCell>
                <mxCell id="107" value="" style="endArrow=none;html=1;fontSize=24;exitX=0;exitY=0.25;exitDx=0;exitDy=0;entryX=1;entryY=0.25;entryDx=0;entryDy=0;fontStyle=1" parent="1" source="106" target="106" edge="1">
                    <mxGeometry width="50" height="50" relative="1" as="geometry">
                        <mxPoint x="-190" y="1080" as="sourcePoint"/>
                        <mxPoint x="-140" y="1030" as="targetPoint"/>
                    </mxGeometry>
                </mxCell>
                <mxCell id="490" value="&lt;font style=&quot;font-size: 36px;&quot;&gt;6.2&lt;/font&gt;" style="edgeLabel;html=1;align=center;verticalAlign=middle;resizable=0;points=[];fontSize=24;" parent="107" vertex="1" connectable="0">
                    <mxGeometry x="-0.7222" y="-3" relative="1" as="geometry">
                        <mxPoint x="6" y="-40" as="offset"/>
                    </mxGeometry>
                </mxCell>
                <mxCell id="132" style="edgeStyle=none;html=1;fontSize=36;entryX=-0.004;entryY=0.232;entryDx=0;entryDy=0;entryPerimeter=0;fontStyle=1" parent="1" target="29" edge="1">
                    <mxGeometry relative="1" as="geometry">
                        <Array as="points">
                            <mxPoint x="1120" y="1010"/>
                        </Array>
                        <mxPoint x="1830" y="975" as="targetPoint"/>
                        <mxPoint x="1120" y="1080" as="sourcePoint"/>
                    </mxGeometry>
                </mxCell>
                <mxCell id="221" value="&lt;font style=&quot;font-size: 36px;&quot;&gt;Catering Service &lt;br&gt;Request Rundown&lt;/font&gt;" style="edgeLabel;html=1;align=center;verticalAlign=middle;resizable=0;points=[];fontSize=24;" parent="132" vertex="1" connectable="0">
                    <mxGeometry x="0.4425" y="2" relative="1" as="geometry">
                        <mxPoint x="26" y="-25" as="offset"/>
                    </mxGeometry>
                </mxCell>
                <mxCell id="133" style="edgeStyle=none;html=1;entryX=0;entryY=0.685;entryDx=0;entryDy=0;entryPerimeter=0;fontSize=36;exitX=1;exitY=0.75;exitDx=0;exitDy=0;fontStyle=1" parent="1" source="110" target="31" edge="1">
                    <mxGeometry relative="1" as="geometry">
                        <Array as="points"/>
                    </mxGeometry>
                </mxCell>
                <mxCell id="278" value="&lt;font style=&quot;font-size: 36px;&quot;&gt;Catering&lt;br&gt;&amp;nbsp;Service&lt;br style=&quot;&quot;&gt;Request &lt;br&gt;Rundown&lt;/font&gt;" style="edgeLabel;html=1;align=center;verticalAlign=middle;resizable=0;points=[];fontSize=24;" parent="133" vertex="1" connectable="0">
                    <mxGeometry x="0.617" y="5" relative="1" as="geometry">
                        <mxPoint x="-30" y="25" as="offset"/>
                    </mxGeometry>
                </mxCell>
                <mxCell id="143" value="" style="edgeStyle=none;html=1;fontSize=36;exitX=0.5;exitY=1;exitDx=0;exitDy=0;entryX=0.459;entryY=-0.007;entryDx=0;entryDy=0;entryPerimeter=0;fontStyle=1" parent="1" source="110" target="113" edge="1">
                    <mxGeometry relative="1" as="geometry"/>
                </mxCell>
                <mxCell id="309" value="&lt;font style=&quot;font-size: 36px;&quot;&gt;Catering Service Request&lt;br&gt;&amp;nbsp;Initial Information&lt;/font&gt;" style="edgeLabel;html=1;align=center;verticalAlign=middle;resizable=0;points=[];fontSize=36;" parent="143" vertex="1" connectable="0">
                    <mxGeometry x="-0.4583" y="-1" relative="1" as="geometry">
                        <mxPoint x="173" y="34" as="offset"/>
                    </mxGeometry>
                </mxCell>
                <mxCell id="270" style="edgeStyle=none;html=1;fontSize=36;fontStyle=1" parent="1" source="110" target="29" edge="1">
                    <mxGeometry relative="1" as="geometry">
                        <Array as="points">
                            <mxPoint x="1930" y="1210"/>
                        </Array>
                    </mxGeometry>
                </mxCell>
                <mxCell id="271" value="&lt;font style=&quot;font-size: 36px;&quot;&gt;Notify for possible &lt;br&gt;Catering Service Order&lt;/font&gt;" style="edgeLabel;html=1;align=center;verticalAlign=middle;resizable=0;points=[];fontSize=36;" parent="270" vertex="1" connectable="0">
                    <mxGeometry x="0.2633" y="2" relative="1" as="geometry">
                        <mxPoint x="16" y="13" as="offset"/>
                    </mxGeometry>
                </mxCell>
                <mxCell id="472" style="edgeStyle=none;html=1;entryX=1;entryY=0.75;entryDx=0;entryDy=0;fontSize=24;fontStyle=1" parent="1" target="33" edge="1">
                    <mxGeometry relative="1" as="geometry">
                        <Array as="points">
                            <mxPoint x="800" y="1040"/>
                        </Array>
                        <mxPoint x="800" y="1080" as="sourcePoint"/>
                    </mxGeometry>
                </mxCell>
                <mxCell id="473" value="&lt;font style=&quot;font-size: 36px;&quot;&gt;Management Feedback&lt;/font&gt;" style="edgeLabel;html=1;align=center;verticalAlign=middle;resizable=0;points=[];fontSize=24;" parent="472" vertex="1" connectable="0">
                    <mxGeometry x="0.7098" y="-2" relative="1" as="geometry">
                        <mxPoint x="171" y="5" as="offset"/>
                    </mxGeometry>
                </mxCell>
                <mxCell id="110" value="Pass Catering Service Handling&amp;nbsp;&lt;br&gt;and Information to high" style="rounded=1;whiteSpace=wrap;html=1;fontSize=24;" parent="1" vertex="1">
                    <mxGeometry x="696.56" y="1080.18" width="500" height="249.82" as="geometry"/>
                </mxCell>
                <mxCell id="111" value="" style="endArrow=none;html=1;fontSize=24;exitX=0;exitY=0.25;exitDx=0;exitDy=0;entryX=1;entryY=0.25;entryDx=0;entryDy=0;fontStyle=1" parent="1" source="110" target="110" edge="1">
                    <mxGeometry width="50" height="50" relative="1" as="geometry">
                        <mxPoint x="490" y="1090" as="sourcePoint"/>
                        <mxPoint x="540" y="1040" as="targetPoint"/>
                    </mxGeometry>
                </mxCell>
                <mxCell id="480" value="5.1" style="edgeLabel;html=1;align=center;verticalAlign=middle;resizable=0;points=[];fontSize=24;" parent="111" vertex="1" connectable="0">
                    <mxGeometry x="-0.7962" y="-2" relative="1" as="geometry">
                        <mxPoint x="22" y="-35" as="offset"/>
                    </mxGeometry>
                </mxCell>
                <mxCell id="466" style="edgeStyle=none;html=1;entryX=0.25;entryY=0;entryDx=0;entryDy=0;fontSize=24;exitX=0.42;exitY=0.999;exitDx=0;exitDy=0;exitPerimeter=0;fontStyle=1" parent="1" source="113" target="115" edge="1">
                    <mxGeometry relative="1" as="geometry"/>
                </mxCell>
                <mxCell id="467" value="&lt;font style=&quot;font-size: 36px;&quot;&gt;Customer's request for&amp;nbsp;&lt;br&gt;Catering Service&lt;/font&gt;" style="edgeLabel;html=1;align=center;verticalAlign=middle;resizable=0;points=[];fontSize=24;" parent="466" vertex="1" connectable="0">
                    <mxGeometry x="-0.2417" relative="1" as="geometry">
                        <mxPoint x="-199" y="7" as="offset"/>
                    </mxGeometry>
                </mxCell>
                <mxCell id="474" style="edgeStyle=none;html=1;exitX=0.339;exitY=0.045;exitDx=0;exitDy=0;entryX=0.25;entryY=1;entryDx=0;entryDy=0;fontSize=24;exitPerimeter=0;fontStyle=1" parent="1" source="113" target="110" edge="1">
                    <mxGeometry relative="1" as="geometry"/>
                </mxCell>
                <mxCell id="475" value="&lt;font style=&quot;font-size: 36px;&quot;&gt;management questions &lt;br&gt;and clarifications &lt;br&gt;of Details&lt;/font&gt;" style="edgeLabel;html=1;align=center;verticalAlign=middle;resizable=0;points=[];fontSize=24;" parent="474" vertex="1" connectable="0">
                    <mxGeometry x="0.2823" y="4" relative="1" as="geometry">
                        <mxPoint x="-193" y="20" as="offset"/>
                    </mxGeometry>
                </mxCell>
                <mxCell id="113" value="&lt;font style=&quot;font-size: 36px;&quot;&gt;Retrieve Customer Information&lt;br&gt;&lt;/font&gt;" style="rounded=1;whiteSpace=wrap;html=1;fontSize=24;" parent="1" vertex="1">
                    <mxGeometry x="620" y="1505" width="560" height="115" as="geometry"/>
                </mxCell>
                <mxCell id="114" value="" style="endArrow=none;html=1;fontSize=24;exitX=0;exitY=0.25;exitDx=0;exitDy=0;entryX=1;entryY=0.25;entryDx=0;entryDy=0;fontStyle=1" parent="1" source="113" target="113" edge="1">
                    <mxGeometry width="50" height="50" relative="1" as="geometry">
                        <mxPoint x="490" y="1330" as="sourcePoint"/>
                        <mxPoint x="540" y="1280" as="targetPoint"/>
                    </mxGeometry>
                </mxCell>
                <mxCell id="481" value="6.1" style="edgeLabel;html=1;align=center;verticalAlign=middle;resizable=0;points=[];fontSize=24;" parent="114" vertex="1" connectable="0">
                    <mxGeometry x="-0.6846" y="-5" relative="1" as="geometry">
                        <mxPoint x="-12" y="-25" as="offset"/>
                    </mxGeometry>
                </mxCell>
                <mxCell id="136" style="edgeStyle=none;html=1;entryX=0.75;entryY=0;entryDx=0;entryDy=0;fontSize=36;exitX=0.75;exitY=1;exitDx=0;exitDy=0;fontStyle=1" parent="1" source="115" target="134" edge="1">
                    <mxGeometry relative="1" as="geometry"/>
                </mxCell>
                <mxCell id="478" value="&lt;font style=&quot;font-size: 36px;&quot;&gt;Customer Approval of&amp;nbsp;Catering Details&lt;/font&gt;" style="edgeLabel;html=1;align=center;verticalAlign=middle;resizable=0;points=[];fontSize=24;" parent="136" vertex="1" connectable="0">
                    <mxGeometry x="-0.2381" y="-4" relative="1" as="geometry">
                        <mxPoint x="-27" y="8" as="offset"/>
                    </mxGeometry>
                </mxCell>
                <mxCell id="468" style="edgeStyle=none;html=1;entryX=0.664;entryY=1.003;entryDx=0;entryDy=0;entryPerimeter=0;fontSize=24;fontStyle=1" parent="1" source="115" target="113" edge="1">
                    <mxGeometry relative="1" as="geometry"/>
                </mxCell>
                <mxCell id="469" value="&lt;font style=&quot;font-size: 36px;&quot;&gt;Management Feedback&lt;/font&gt;" style="edgeLabel;html=1;align=center;verticalAlign=middle;resizable=0;points=[];fontSize=24;" parent="468" vertex="1" connectable="0">
                    <mxGeometry x="0.1918" y="1" relative="1" as="geometry">
                        <mxPoint x="140" y="-4" as="offset"/>
                    </mxGeometry>
                </mxCell>
                <mxCell id="115" value="&lt;font style=&quot;font-size: 36px;&quot;&gt;Discuss and Negotiate &lt;br&gt;preparation of&amp;nbsp;&lt;br&gt;Requests and Preference &lt;br&gt;&lt;/font&gt;" style="rounded=1;whiteSpace=wrap;html=1;fontSize=24;" parent="1" vertex="1">
                    <mxGeometry x="740" y="1770" width="503.12" height="250" as="geometry"/>
                </mxCell>
                <mxCell id="116" value="" style="endArrow=none;html=1;fontSize=24;exitX=0;exitY=0.25;exitDx=0;exitDy=0;entryX=1;entryY=0.25;entryDx=0;entryDy=0;fontStyle=1" parent="1" source="115" target="115" edge="1">
                    <mxGeometry width="50" height="50" relative="1" as="geometry">
                        <mxPoint x="490" y="1570" as="sourcePoint"/>
                        <mxPoint x="540" y="1520" as="targetPoint"/>
                    </mxGeometry>
                </mxCell>
                <mxCell id="482" value="7.1" style="edgeLabel;html=1;align=center;verticalAlign=middle;resizable=0;points=[];fontSize=24;" parent="116" vertex="1" connectable="0">
                    <mxGeometry x="-0.6329" y="-1" relative="1" as="geometry">
                        <mxPoint x="-22" y="-23" as="offset"/>
                    </mxGeometry>
                </mxCell>
                <mxCell id="122" style="edgeStyle=none;html=1;entryX=0.841;entryY=0.002;entryDx=0;entryDy=0;fontSize=36;exitX=0.602;exitY=1.021;exitDx=0;exitDy=0;exitPerimeter=0;entryPerimeter=0;fontStyle=1" parent="1" source="117" target="8" edge="1">
                    <mxGeometry relative="1" as="geometry"/>
                </mxCell>
                <mxCell id="240" value="&lt;font style=&quot;font-size: 36px;&quot;&gt;Catering Service &lt;br&gt;and Preparations &lt;br&gt;Details&amp;nbsp;&lt;/font&gt;" style="edgeLabel;html=1;align=center;verticalAlign=middle;resizable=0;points=[];fontSize=24;" parent="122" vertex="1" connectable="0">
                    <mxGeometry x="0.4197" y="1" relative="1" as="geometry">
                        <mxPoint x="-45" y="54" as="offset"/>
                    </mxGeometry>
                </mxCell>
                <mxCell id="123" style="edgeStyle=none;html=1;entryX=0.5;entryY=0;entryDx=0;entryDy=0;fontSize=36;exitX=1;exitY=0.5;exitDx=0;exitDy=0;fontStyle=1" parent="1" source="117" target="15" edge="1">
                    <mxGeometry relative="1" as="geometry">
                        <Array as="points">
                            <mxPoint x="1515" y="2570"/>
                        </Array>
                    </mxGeometry>
                </mxCell>
                <mxCell id="237" value="New Catering Service Details &lt;br&gt;and Information for preparation&amp;nbsp; &amp;nbsp;" style="edgeLabel;html=1;align=center;verticalAlign=middle;resizable=0;points=[];fontSize=24;" parent="123" vertex="1" connectable="0">
                    <mxGeometry x="0.6903" y="3" relative="1" as="geometry">
                        <mxPoint x="-65" y="-430" as="offset"/>
                    </mxGeometry>
                </mxCell>
                <mxCell id="130" style="edgeStyle=none;html=1;fontSize=36;exitX=0.25;exitY=1;exitDx=0;exitDy=0;entryX=0.701;entryY=-0.003;entryDx=0;entryDy=0;entryPerimeter=0;fontStyle=1" parent="1" target="127" edge="1">
                    <mxGeometry relative="1" as="geometry">
                        <Array as="points">
                            <mxPoint x="955" y="2820"/>
                            <mxPoint x="-520" y="2850"/>
                        </Array>
                        <mxPoint x="955.6199999999999" y="2649.68" as="sourcePoint"/>
                        <mxPoint x="-530" y="2940" as="targetPoint"/>
                    </mxGeometry>
                </mxCell>
                <mxCell id="247" value="&lt;font style=&quot;font-size: 36px;&quot;&gt;Total Cost of catering service&amp;nbsp;&lt;/font&gt;" style="edgeLabel;html=1;align=center;verticalAlign=middle;resizable=0;points=[];fontSize=30;" parent="130" vertex="1" connectable="0">
                    <mxGeometry x="0.747" y="-2" relative="1" as="geometry">
                        <mxPoint x="160" y="-10" as="offset"/>
                    </mxGeometry>
                </mxCell>
                <mxCell id="291" value="&lt;font style=&quot;font-size: 36px;&quot;&gt;Total Cost&lt;br&gt;&amp;nbsp;catering service&amp;nbsp;&lt;/font&gt;" style="edgeLabel;html=1;align=center;verticalAlign=middle;resizable=0;points=[];fontSize=24;" parent="130" vertex="1" connectable="0">
                    <mxGeometry x="-0.7772" y="-3" relative="1" as="geometry">
                        <mxPoint x="-41" y="-77" as="offset"/>
                    </mxGeometry>
                </mxCell>
                <mxCell id="476" style="edgeStyle=none;html=1;entryX=0.25;entryY=1;entryDx=0;entryDy=0;fontSize=24;exitX=0.25;exitY=0;exitDx=0;exitDy=0;fontStyle=1" parent="1" source="117" target="134" edge="1">
                    <mxGeometry relative="1" as="geometry"/>
                </mxCell>
                <mxCell id="477" value="&lt;font style=&quot;font-size: 36px;&quot;&gt;Copy &lt;br&gt;Service Invoice&lt;/font&gt;" style="edgeLabel;html=1;align=center;verticalAlign=middle;resizable=0;points=[];fontSize=24;" parent="476" vertex="1" connectable="0">
                    <mxGeometry x="0.2679" relative="1" as="geometry">
                        <mxPoint x="-69" y="18" as="offset"/>
                    </mxGeometry>
                </mxCell>
                <mxCell id="117" value="Filling up the forms for service invoice&amp;nbsp;" style="rounded=1;whiteSpace=wrap;html=1;fontSize=24;" parent="1" vertex="1">
                    <mxGeometry x="853.1200000000001" y="2490" width="390" height="160" as="geometry"/>
                </mxCell>
                <mxCell id="118" value="" style="endArrow=none;html=1;fontSize=24;exitX=0;exitY=0.25;exitDx=0;exitDy=0;entryX=1;entryY=0.25;entryDx=0;entryDy=0;fontStyle=1" parent="1" source="117" target="117" edge="1">
                    <mxGeometry width="50" height="50" relative="1" as="geometry">
                        <mxPoint x="490" y="1800" as="sourcePoint"/>
                        <mxPoint x="540" y="1750" as="targetPoint"/>
                    </mxGeometry>
                </mxCell>
                <mxCell id="484" value="9.1" style="edgeLabel;html=1;align=center;verticalAlign=middle;resizable=0;points=[];fontSize=24;" parent="118" vertex="1" connectable="0">
                    <mxGeometry x="-0.6591" y="-1" relative="1" as="geometry">
                        <mxPoint x="-9" y="-21" as="offset"/>
                    </mxGeometry>
                </mxCell>
                <mxCell id="148" style="edgeStyle=none;html=1;entryX=0;entryY=0.5;entryDx=0;entryDy=0;fontSize=36;exitX=0.078;exitY=0.001;exitDx=0;exitDy=0;exitPerimeter=0;fontStyle=1" parent="1" source="127" target="17" edge="1">
                    <mxGeometry relative="1" as="geometry">
                        <Array as="points">
                            <mxPoint x="-920" y="2910"/>
                            <mxPoint x="-920" y="880"/>
                        </Array>
                    </mxGeometry>
                </mxCell>
                <mxCell id="267" value="&lt;font style=&quot;font-size: 36px;&quot;&gt;Relevant&lt;br&gt;Previous &lt;br&gt;Transaction &lt;br&gt;Customer&lt;br&gt;Data&lt;/font&gt;" style="edgeLabel;html=1;align=center;verticalAlign=middle;resizable=0;points=[];fontSize=24;" parent="148" vertex="1" connectable="0">
                    <mxGeometry x="-0.8138" y="-2" relative="1" as="geometry">
                        <mxPoint x="58" y="49" as="offset"/>
                    </mxGeometry>
                </mxCell>
                <mxCell id="295" value="&lt;font style=&quot;font-size: 48px;&quot;&gt;Relevant Previous&lt;br&gt;Transaction &lt;br&gt;Customer Data&lt;/font&gt;" style="edgeLabel;html=1;align=center;verticalAlign=middle;resizable=0;points=[];fontSize=24;" parent="148" vertex="1" connectable="0">
                    <mxGeometry x="0.9342" y="-1" relative="1" as="geometry">
                        <mxPoint x="-639" y="325" as="offset"/>
                    </mxGeometry>
                </mxCell>
                <mxCell id="253" style="edgeStyle=none;html=1;entryX=0.25;entryY=0;entryDx=0;entryDy=0;fontSize=30;exitX=0.598;exitY=1.016;exitDx=0;exitDy=0;exitPerimeter=0;fontStyle=1" parent="1" source="127" target="251" edge="1">
                    <mxGeometry relative="1" as="geometry">
                        <Array as="points">
                            <mxPoint x="-450" y="3710"/>
                            <mxPoint x="210" y="3780"/>
                        </Array>
                    </mxGeometry>
                </mxCell>
                <mxCell id="254" value="&lt;font style=&quot;font-size: 36px;&quot;&gt;Overall cost of Catering &lt;br&gt;Service transactions&amp;nbsp;&lt;/font&gt;" style="edgeLabel;html=1;align=center;verticalAlign=middle;resizable=0;points=[];fontSize=30;" parent="253" vertex="1" connectable="0">
                    <mxGeometry x="-0.335" y="6" relative="1" as="geometry">
                        <mxPoint x="296" y="28" as="offset"/>
                    </mxGeometry>
                </mxCell>
                <mxCell id="419" style="edgeStyle=none;html=1;fontSize=24;entryX=0.25;entryY=0;entryDx=0;entryDy=0;exitX=0.15;exitY=1;exitDx=0;exitDy=0;exitPerimeter=0;fontStyle=1" parent="1" source="127" target="420" edge="1">
                    <mxGeometry relative="1" as="geometry">
                        <mxPoint x="-10" y="3520" as="targetPoint"/>
                        <Array as="points">
                            <mxPoint x="-860" y="3410"/>
                            <mxPoint x="-440" y="3410"/>
                            <mxPoint x="370" y="3720"/>
                            <mxPoint x="680" y="3910"/>
                            <mxPoint x="840" y="4010"/>
                        </Array>
                    </mxGeometry>
                </mxCell>
                <mxCell id="436" value="&lt;font style=&quot;font-size: 36px;&quot;&gt;Overall Cost&amp;nbsp;&lt;br&gt;of room reservations&lt;/font&gt;" style="edgeLabel;html=1;align=center;verticalAlign=middle;resizable=0;points=[];fontSize=24;" parent="419" vertex="1" connectable="0">
                    <mxGeometry x="-0.1385" y="-2" relative="1" as="geometry">
                        <mxPoint x="-659" y="-201" as="offset"/>
                    </mxGeometry>
                </mxCell>
                <mxCell id="622" value="Overall Cost&amp;nbsp;&lt;br&gt;of room reservations" style="edgeLabel;html=1;align=center;verticalAlign=middle;resizable=0;points=[];fontSize=36;" vertex="1" connectable="0" parent="419">
                    <mxGeometry x="0.7765" y="-5" relative="1" as="geometry">
                        <mxPoint x="92" y="48" as="offset"/>
                    </mxGeometry>
                </mxCell>
                <mxCell id="496" style="edgeStyle=none;html=1;entryX=0.374;entryY=0.009;entryDx=0;entryDy=0;fontSize=24;exitX=1;exitY=0.625;exitDx=0;exitDy=0;exitPerimeter=0;entryPerimeter=0;fontStyle=1" parent="1" source="127" target="494" edge="1">
                    <mxGeometry relative="1" as="geometry">
                        <mxPoint x="-350" y="3110" as="sourcePoint"/>
                        <Array as="points">
                            <mxPoint x="-280" y="3128"/>
                            <mxPoint x="-280" y="3400"/>
                            <mxPoint x="300" y="3620"/>
                            <mxPoint x="1540" y="4090"/>
                        </Array>
                    </mxGeometry>
                </mxCell>
                <mxCell id="497" value="&lt;font style=&quot;font-size: 36px;&quot;&gt;Overall Cost&amp;nbsp;&lt;br&gt;of room lodging&lt;/font&gt;" style="edgeLabel;html=1;align=center;verticalAlign=middle;resizable=0;points=[];fontSize=24;" parent="496" vertex="1" connectable="0">
                    <mxGeometry x="-0.8571" y="-2" relative="1" as="geometry">
                        <mxPoint x="2" y="90" as="offset"/>
                    </mxGeometry>
                </mxCell>
                <mxCell id="127" value="&lt;font style=&quot;font-size: 36px;&quot;&gt;Transaction End and calculate the total cost of transactions&lt;br&gt;or start a new Transactions&lt;/font&gt;" style="rounded=1;whiteSpace=wrap;html=1;fontSize=24;" parent="1" vertex="1">
                    <mxGeometry x="-950" y="2940" width="600.31" height="300" as="geometry"/>
                </mxCell>
                <mxCell id="128" value="" style="endArrow=none;html=1;fontSize=24;exitX=0;exitY=0.25;exitDx=0;exitDy=0;entryX=1;entryY=0.25;entryDx=0;entryDy=0;fontStyle=1" parent="1" source="127" target="127" edge="1">
                    <mxGeometry width="50" height="50" relative="1" as="geometry">
                        <mxPoint x="-500.64" y="2715" as="sourcePoint"/>
                        <mxPoint x="-450.64" y="2665" as="targetPoint"/>
                    </mxGeometry>
                </mxCell>
                <mxCell id="451" value="10.0" style="edgeLabel;html=1;align=center;verticalAlign=middle;resizable=0;points=[];fontSize=24;" parent="128" vertex="1" connectable="0">
                    <mxGeometry x="-0.6555" y="3" relative="1" as="geometry">
                        <mxPoint x="-11" y="-32" as="offset"/>
                    </mxGeometry>
                </mxCell>
                <mxCell id="137" style="edgeStyle=none;html=1;entryX=0.641;entryY=0.01;entryDx=0;entryDy=0;fontSize=36;fontStyle=1;entryPerimeter=0;exitX=0.63;exitY=1.012;exitDx=0;exitDy=0;exitPerimeter=0;" parent="1" source="134" target="117" edge="1">
                    <mxGeometry relative="1" as="geometry"/>
                </mxCell>
                <mxCell id="290" value="&lt;font style=&quot;font-size: 36px;&quot;&gt;Catering Service Order Details&lt;/font&gt;" style="edgeLabel;html=1;align=center;verticalAlign=middle;resizable=0;points=[];fontSize=24;" parent="137" vertex="1" connectable="0">
                    <mxGeometry x="-0.2176" y="-2" relative="1" as="geometry">
                        <mxPoint x="193" y="32" as="offset"/>
                    </mxGeometry>
                </mxCell>
                <mxCell id="150" style="edgeStyle=none;html=1;fontSize=36;exitX=0.999;exitY=0.343;exitDx=0;exitDy=0;exitPerimeter=0;entryX=1.003;entryY=0.408;entryDx=0;entryDy=0;entryPerimeter=0;fontStyle=1" parent="1" source="134" target="5" edge="1">
                    <mxGeometry relative="1" as="geometry">
                        <mxPoint x="300" y="-110" as="targetPoint"/>
                        <Array as="points">
                            <mxPoint x="1460" y="2200"/>
                            <mxPoint x="1450" y="-140"/>
                        </Array>
                    </mxGeometry>
                </mxCell>
                <mxCell id="274" value="&lt;font style=&quot;font-size: 48px;&quot;&gt;Catering Service&amp;nbsp;Order Finalization&amp;nbsp;&lt;/font&gt;" style="edgeLabel;html=1;align=center;verticalAlign=middle;resizable=0;points=[];fontSize=30;" parent="150" vertex="1" connectable="0">
                    <mxGeometry x="0.6985" relative="1" as="geometry">
                        <mxPoint x="-40" y="-5" as="offset"/>
                    </mxGeometry>
                </mxCell>
                <mxCell id="275" value="&lt;font style=&quot;font-size: 36px;&quot;&gt;Catering &lt;br&gt;Service&amp;nbsp;&lt;br&gt;Order &lt;br&gt;Finalization&amp;nbsp;&lt;/font&gt;" style="edgeLabel;html=1;align=center;verticalAlign=middle;resizable=0;points=[];fontSize=30;" parent="150" vertex="1" connectable="0">
                    <mxGeometry x="-0.928" y="-1" relative="1" as="geometry">
                        <mxPoint x="17" y="-309" as="offset"/>
                    </mxGeometry>
                </mxCell>
                <mxCell id="134" value="&lt;font style=&quot;font-size: 36px;&quot;&gt;Transaction Details finalization&lt;/font&gt;" style="rounded=1;whiteSpace=wrap;html=1;fontSize=24;" parent="1" vertex="1">
                    <mxGeometry x="850" y="2130" width="390" height="190" as="geometry"/>
                </mxCell>
                <mxCell id="135" value="" style="endArrow=none;html=1;fontSize=24;exitX=0;exitY=0.25;exitDx=0;exitDy=0;entryX=1;entryY=0.25;entryDx=0;entryDy=0;fontStyle=1" parent="1" source="134" target="134" edge="1">
                    <mxGeometry width="50" height="50" relative="1" as="geometry">
                        <mxPoint x="1020" y="1810" as="sourcePoint"/>
                        <mxPoint x="1070" y="1760" as="targetPoint"/>
                    </mxGeometry>
                </mxCell>
                <mxCell id="483" value="8.1" style="edgeLabel;html=1;align=center;verticalAlign=middle;resizable=0;points=[];fontSize=24;" parent="135" vertex="1" connectable="0">
                    <mxGeometry x="-0.7012" y="-1" relative="1" as="geometry">
                        <mxPoint y="-18" as="offset"/>
                    </mxGeometry>
                </mxCell>
                <mxCell id="310" style="edgeStyle=none;html=1;entryX=0.813;entryY=1.002;entryDx=0;entryDy=0;entryPerimeter=0;fontSize=24;exitX=0.907;exitY=-0.004;exitDx=0;exitDy=0;fontStyle=1;exitPerimeter=0;" parent="1" source="162" target="172" edge="1">
                    <mxGeometry relative="1" as="geometry">
                        <mxPoint x="3100.62" y="1780" as="sourcePoint"/>
                        <Array as="points"/>
                    </mxGeometry>
                </mxCell>
                <mxCell id="311" value="&lt;font style=&quot;font-size: 36px;&quot;&gt;Schedule &lt;br&gt;information&lt;/font&gt;" style="edgeLabel;html=1;align=center;verticalAlign=middle;resizable=0;points=[];fontSize=24;" parent="310" vertex="1" connectable="0">
                    <mxGeometry x="-0.0465" y="-1" relative="1" as="geometry">
                        <mxPoint x="14" y="15" as="offset"/>
                    </mxGeometry>
                </mxCell>
                <mxCell id="167" style="edgeStyle=none;html=1;entryX=0.194;entryY=0.011;entryDx=0;entryDy=0;entryPerimeter=0;exitX=0.689;exitY=1;exitDx=0;exitDy=0;exitPerimeter=0;fontStyle=1" parent="1" source="160" target="164" edge="1">
                    <mxGeometry relative="1" as="geometry">
                        <mxPoint x="2270" y="2280" as="targetPoint"/>
                    </mxGeometry>
                </mxCell>
                <mxCell id="486" value="&lt;font style=&quot;font-size: 36px;&quot;&gt;Relevant Updates and Status&lt;br&gt;report for Room Lodging&lt;/font&gt;" style="edgeLabel;html=1;align=center;verticalAlign=middle;resizable=0;points=[];fontSize=24;" parent="167" vertex="1" connectable="0">
                    <mxGeometry x="-0.4207" y="-7" relative="1" as="geometry">
                        <mxPoint x="-86" y="176" as="offset"/>
                    </mxGeometry>
                </mxCell>
                <mxCell id="160" value="&lt;font style=&quot;font-size: 36px;&quot;&gt;Check schedule for &lt;br&gt;room status changes&amp;nbsp;&lt;/font&gt;" style="rounded=1;whiteSpace=wrap;html=1;fontSize=24;" parent="1" vertex="1">
                    <mxGeometry x="2150" y="1930" width="410.62" height="220" as="geometry"/>
                </mxCell>
                <mxCell id="161" value="" style="endArrow=none;html=1;fontSize=24;exitX=0;exitY=0.25;exitDx=0;exitDy=0;entryX=1;entryY=0.25;entryDx=0;entryDy=0;fontStyle=1" parent="1" source="160" target="160" edge="1">
                    <mxGeometry width="50" height="50" relative="1" as="geometry">
                        <mxPoint x="1919.3600000000001" y="2360" as="sourcePoint"/>
                        <mxPoint x="1969.3600000000001" y="2310" as="targetPoint"/>
                    </mxGeometry>
                </mxCell>
                <mxCell id="549" value="&lt;font style=&quot;font-size: 24px;&quot;&gt;17.0&lt;/font&gt;" style="edgeLabel;html=1;align=center;verticalAlign=middle;resizable=0;points=[];fontSize=36;" parent="161" vertex="1" connectable="0">
                    <mxGeometry x="-0.7141" y="4" relative="1" as="geometry">
                        <mxPoint x="-9" y="-21" as="offset"/>
                    </mxGeometry>
                </mxCell>
                <mxCell id="169" style="edgeStyle=none;html=1;entryX=0.837;entryY=0.007;entryDx=0;entryDy=0;entryPerimeter=0;fontStyle=1" parent="1" source="162" target="164" edge="1">
                    <mxGeometry relative="1" as="geometry">
                        <mxPoint x="2880.3100000000004" y="2250" as="targetPoint"/>
                    </mxGeometry>
                </mxCell>
                <mxCell id="265" value="&lt;font style=&quot;font-size: 36px;&quot;&gt;Updates and Status report &lt;br&gt;of Catering Service Preparation&amp;nbsp;&lt;/font&gt;" style="edgeLabel;html=1;align=center;verticalAlign=middle;resizable=0;points=[];fontSize=24;" parent="169" vertex="1" connectable="0">
                    <mxGeometry x="-0.3461" y="1" relative="1" as="geometry">
                        <mxPoint x="2" y="24" as="offset"/>
                    </mxGeometry>
                </mxCell>
                <mxCell id="162" value="&lt;font style=&quot;font-size: 36px;&quot;&gt;Check schedule for upcoming&lt;br&gt;catering service event&lt;/font&gt;" style="rounded=1;whiteSpace=wrap;html=1;fontSize=24;" parent="1" vertex="1">
                    <mxGeometry x="2650" y="1890" width="610" height="250" as="geometry"/>
                </mxCell>
                <mxCell id="163" value="" style="endArrow=none;html=1;fontSize=24;exitX=-0.003;exitY=0.323;exitDx=0;exitDy=0;exitPerimeter=0;entryX=0.999;entryY=0.314;entryDx=0;entryDy=0;entryPerimeter=0;fontStyle=1" parent="1" source="162" target="162" edge="1">
                    <mxGeometry width="50" height="50" relative="1" as="geometry">
                        <mxPoint x="2650" y="1950" as="sourcePoint"/>
                        <mxPoint x="3110" y="1940" as="targetPoint"/>
                    </mxGeometry>
                </mxCell>
                <mxCell id="551" value="19.0" style="edgeLabel;html=1;align=center;verticalAlign=middle;resizable=0;points=[];fontSize=36;" parent="163" vertex="1" connectable="0">
                    <mxGeometry x="-0.69" y="-1" relative="1" as="geometry">
                        <mxPoint x="-21" y="-29" as="offset"/>
                    </mxGeometry>
                </mxCell>
                <mxCell id="536" style="edgeStyle=none;html=1;fontSize=24;fillColor=#FFFFFF;entryX=0.163;entryY=-0.005;entryDx=0;entryDy=0;entryPerimeter=0;exitX=0.153;exitY=1.01;exitDx=0;exitDy=0;exitPerimeter=0;fontStyle=1" parent="1" source="164" target="537" edge="1">
                    <mxGeometry relative="1" as="geometry">
                        <mxPoint x="2130" y="2724.6297200520835" as="targetPoint"/>
                    </mxGeometry>
                </mxCell>
                <mxCell id="544" value="Management Notification &lt;br&gt;and Inquiry" style="edgeLabel;html=1;align=center;verticalAlign=middle;resizable=0;points=[];fontSize=36;" parent="536" vertex="1" connectable="0">
                    <mxGeometry x="-0.3114" y="2" relative="1" as="geometry">
                        <mxPoint x="-135" y="24" as="offset"/>
                    </mxGeometry>
                </mxCell>
                <mxCell id="164" value="&lt;font style=&quot;font-size: 36px;&quot;&gt;Contact customers &lt;br&gt;for their Cooperation&amp;nbsp;&lt;/font&gt;" style="rounded=1;whiteSpace=wrap;html=1;fontSize=24;" parent="1" vertex="1">
                    <mxGeometry x="2340" y="2540" width="480" height="230" as="geometry"/>
                </mxCell>
                <mxCell id="165" value="" style="endArrow=none;html=1;fontSize=24;entryX=0.999;entryY=0.294;entryDx=0;entryDy=0;entryPerimeter=0;fontStyle=1" parent="1" target="164" edge="1">
                    <mxGeometry width="50" height="50" relative="1" as="geometry">
                        <mxPoint x="2340" y="2610" as="sourcePoint"/>
                        <mxPoint x="2820" y="2600" as="targetPoint"/>
                    </mxGeometry>
                </mxCell>
                <mxCell id="550" value="18.0" style="edgeLabel;html=1;align=center;verticalAlign=middle;resizable=0;points=[];fontSize=36;" parent="165" vertex="1" connectable="0">
                    <mxGeometry x="-0.7224" relative="1" as="geometry">
                        <mxPoint x="-4" y="-31" as="offset"/>
                    </mxGeometry>
                </mxCell>
                <mxCell id="173" style="edgeStyle=none;html=1;entryX=0.684;entryY=0.015;entryDx=0;entryDy=0;exitX=0;exitY=0;exitDx=20;exitDy=209.82;exitPerimeter=0;entryPerimeter=0;fontStyle=1" parent="1" source="172" target="160" edge="1">
                    <mxGeometry relative="1" as="geometry">
                        <Array as="points">
                            <mxPoint x="2840" y="1710"/>
                            <mxPoint x="2450" y="1770"/>
                        </Array>
                        <mxPoint x="2645" y="1720" as="targetPoint"/>
                    </mxGeometry>
                </mxCell>
                <mxCell id="263" value="&lt;font style=&quot;font-size: 36px;&quot;&gt;Staff Identification Details&lt;/font&gt;" style="edgeLabel;html=1;align=center;verticalAlign=middle;resizable=0;points=[];fontSize=36;" parent="173" vertex="1" connectable="0">
                    <mxGeometry x="0.1083" y="-2" relative="1" as="geometry">
                        <mxPoint x="15" y="43" as="offset"/>
                    </mxGeometry>
                </mxCell>
                <mxCell id="174" style="edgeStyle=none;html=1;entryX=0.581;entryY=-0.002;entryDx=0;entryDy=0;exitX=0.34;exitY=1.014;exitDx=0;exitDy=0;exitPerimeter=0;fontStyle=1;entryPerimeter=0;" parent="1" source="172" target="162" edge="1">
                    <mxGeometry relative="1" as="geometry">
                        <mxPoint x="3059" y="1500" as="sourcePoint"/>
                        <mxPoint x="3064.1736600000004" y="1719.6399999999999" as="targetPoint"/>
                        <Array as="points">
                            <mxPoint x="3030" y="1790"/>
                        </Array>
                    </mxGeometry>
                </mxCell>
                <mxCell id="264" value="&lt;font style=&quot;font-size: 36px;&quot;&gt;Staff&lt;br&gt;&amp;nbsp;Identification&lt;br&gt;Details&lt;/font&gt;" style="edgeLabel;html=1;align=center;verticalAlign=middle;resizable=0;points=[];fontSize=24;" parent="174" vertex="1" connectable="0">
                    <mxGeometry x="0.151" y="-2" relative="1" as="geometry">
                        <mxPoint x="-3" y="-6" as="offset"/>
                    </mxGeometry>
                </mxCell>
                <mxCell id="179" style="edgeStyle=none;html=1;fontStyle=1" parent="1" source="172" target="177" edge="1">
                    <mxGeometry relative="1" as="geometry"/>
                </mxCell>
                <mxCell id="519" style="edgeStyle=none;html=1;fontSize=24;fillColor=#FFFFFF;entryX=0.999;entryY=0.283;entryDx=0;entryDy=0;entryPerimeter=0;exitX=0.44;exitY=-0.026;exitDx=0;exitDy=0;exitPerimeter=0;fontStyle=1" parent="1" source="172" target="507" edge="1">
                    <mxGeometry relative="1" as="geometry">
                        <mxPoint x="3010" y="1460" as="sourcePoint"/>
                        <Array as="points">
                            <mxPoint x="3000" y="722"/>
                        </Array>
                        <mxPoint x="2840" y="720" as="targetPoint"/>
                    </mxGeometry>
                </mxCell>
                <mxCell id="520" value="&lt;font style=&quot;font-size: 36px;&quot;&gt;Realtime Updates&lt;br&gt;on tasks &lt;br&gt;and preparations&lt;/font&gt;" style="edgeLabel;html=1;align=center;verticalAlign=middle;resizable=0;points=[];fontSize=24;" parent="519" vertex="1" connectable="0">
                    <mxGeometry x="0.1923" y="-1" relative="1" as="geometry">
                        <mxPoint x="-21" y="-101" as="offset"/>
                    </mxGeometry>
                </mxCell>
                <mxCell id="562" style="edgeStyle=none;html=1;entryX=1;entryY=0.5;entryDx=0;entryDy=0;fontSize=36;fontStyle=1;exitX=0.768;exitY=-0.004;exitDx=0;exitDy=0;exitPerimeter=0;" parent="1" source="172" target="559" edge="1">
                    <mxGeometry relative="1" as="geometry">
                        <Array as="points">
                            <mxPoint x="3210" y="120"/>
                        </Array>
                        <mxPoint x="3220" y="1450" as="sourcePoint"/>
                    </mxGeometry>
                </mxCell>
                <mxCell id="580" value="&lt;font style=&quot;font-size: 36px;&quot;&gt;Tasks Status&amp;nbsp;&lt;br&gt;and Situation&amp;nbsp;&lt;br&gt;updates&lt;/font&gt;" style="edgeLabel;html=1;align=center;verticalAlign=middle;resizable=0;points=[];fontSize=24;" parent="562" vertex="1" connectable="0">
                    <mxGeometry x="0.8833" y="2" relative="1" as="geometry">
                        <mxPoint x="67" y="-52" as="offset"/>
                    </mxGeometry>
                </mxCell>
                <mxCell id="595" value="&lt;font style=&quot;font-size: 36px;&quot;&gt;Tasks Status&amp;nbsp;&lt;br&gt;and Situation&amp;nbsp;&lt;br&gt;updates&lt;/font&gt;" style="edgeLabel;html=1;align=center;verticalAlign=middle;resizable=0;points=[];fontSize=24;" parent="562" vertex="1" connectable="0">
                    <mxGeometry x="-0.822" y="3" relative="1" as="geometry">
                        <mxPoint x="94" as="offset"/>
                    </mxGeometry>
                </mxCell>
                <mxCell id="577" value="" style="edgeStyle=none;html=1;fontSize=24;fontStyle=1" parent="1" source="172" target="177" edge="1">
                    <mxGeometry relative="1" as="geometry"/>
                </mxCell>
                <mxCell id="630" value="Tasks&amp;nbsp;&lt;br&gt;Status" style="edgeLabel;html=1;align=center;verticalAlign=middle;resizable=0;points=[];fontSize=48;" vertex="1" connectable="0" parent="577">
                    <mxGeometry x="0.1742" y="-6" relative="1" as="geometry">
                        <mxPoint x="15" y="39" as="offset"/>
                    </mxGeometry>
                </mxCell>
                <mxCell id="172" value="&lt;font style=&quot;font-size: 48px;&quot;&gt;Staff member&lt;/font&gt;" style="shape=cube;whiteSpace=wrap;html=1;boundedLbl=1;backgroundOutline=1;darkOpacity=0.05;darkOpacity2=0.1;" parent="1" vertex="1">
                    <mxGeometry x="2920" y="1440" width="430" height="209.82" as="geometry"/>
                </mxCell>
                <mxCell id="180" style="edgeStyle=none;html=1;exitX=0;exitY=0.25;exitDx=0;exitDy=0;entryX=0.998;entryY=0.249;entryDx=0;entryDy=0;entryPerimeter=0;fontStyle=1" parent="1" source="177" target="31" edge="1">
                    <mxGeometry relative="1" as="geometry">
                        <mxPoint x="2060" y="1360" as="targetPoint"/>
                    </mxGeometry>
                </mxCell>
                <mxCell id="281" value="&lt;font style=&quot;font-size: 36px;&quot;&gt;Tasks Report&amp;nbsp;&lt;br&gt;&lt;/font&gt;" style="edgeLabel;html=1;align=center;verticalAlign=middle;resizable=0;points=[];fontSize=18;" parent="180" vertex="1" connectable="0">
                    <mxGeometry x="0.3996" y="3" relative="1" as="geometry">
                        <mxPoint x="62" y="-12" as="offset"/>
                    </mxGeometry>
                </mxCell>
                <mxCell id="182" style="edgeStyle=none;html=1;entryX=0;entryY=0;entryDx=320;entryDy=115;entryPerimeter=0;fontStyle=1" parent="1" target="29" edge="1">
                    <mxGeometry relative="1" as="geometry">
                        <Array as="points">
                            <mxPoint x="2500" y="990"/>
                        </Array>
                        <mxPoint x="2500" y="1290" as="sourcePoint"/>
                    </mxGeometry>
                </mxCell>
                <mxCell id="279" value="&lt;font style=&quot;font-size: 36px;&quot;&gt;Business &lt;br&gt;Operations &lt;br&gt;Status&amp;nbsp;&lt;br&gt;&lt;/font&gt;" style="edgeLabel;html=1;align=center;verticalAlign=middle;resizable=0;points=[];fontSize=24;" parent="182" vertex="1" connectable="0">
                    <mxGeometry x="0.3741" y="4" relative="1" as="geometry">
                        <mxPoint x="-51" y="-2" as="offset"/>
                    </mxGeometry>
                </mxCell>
                <mxCell id="177" value="&lt;font style=&quot;font-size: 36px;&quot;&gt;Daily reports&lt;br&gt;for higher ranking officer&lt;/font&gt;" style="rounded=1;whiteSpace=wrap;html=1;fontSize=24;" parent="1" vertex="1">
                    <mxGeometry x="2450" y="1240" width="270" height="350" as="geometry"/>
                </mxCell>
                <mxCell id="178" value="" style="endArrow=none;html=1;fontSize=24;exitX=-0.001;exitY=0.299;exitDx=0;exitDy=0;entryX=0.998;entryY=0.288;entryDx=0;entryDy=0;exitPerimeter=0;entryPerimeter=0;fontStyle=1" parent="1" source="177" target="177" edge="1">
                    <mxGeometry width="50" height="50" relative="1" as="geometry">
                        <mxPoint x="1909.3600000000001" y="1409.82" as="sourcePoint"/>
                        <mxPoint x="1959.3600000000001" y="1359.82" as="targetPoint"/>
                    </mxGeometry>
                </mxCell>
                <mxCell id="548" value="16.0" style="edgeLabel;html=1;align=center;verticalAlign=middle;resizable=0;points=[];fontSize=36;" parent="178" vertex="1" connectable="0">
                    <mxGeometry x="-0.7161" y="3" relative="1" as="geometry">
                        <mxPoint x="8" y="-28" as="offset"/>
                    </mxGeometry>
                </mxCell>
                <mxCell id="186" style="edgeStyle=none;html=1;exitX=0.5;exitY=0;exitDx=0;exitDy=0;entryX=0.003;entryY=0.89;entryDx=0;entryDy=0;entryPerimeter=0;fontStyle=1" parent="1" source="13" target="160" edge="1">
                    <mxGeometry relative="1" as="geometry">
                        <mxPoint x="40" y="3200" as="sourcePoint"/>
                        <mxPoint x="2070" y="2060" as="targetPoint"/>
                        <Array as="points">
                            <mxPoint x="131" y="2990"/>
                            <mxPoint x="2000" y="2810"/>
                            <mxPoint x="2000" y="2130"/>
                        </Array>
                    </mxGeometry>
                </mxCell>
                <mxCell id="246" value="&lt;font style=&quot;font-size: 30px;&quot;&gt;Rooms Schedule for &lt;br&gt;Customer Reservation,&lt;br&gt;&amp;nbsp;Check-in, and&amp;nbsp;&lt;br&gt;Check-out&lt;/font&gt;" style="edgeLabel;html=1;align=center;verticalAlign=middle;resizable=0;points=[];fontSize=24;" parent="186" vertex="1" connectable="0">
                    <mxGeometry x="-0.6785" y="-4" relative="1" as="geometry">
                        <mxPoint x="-104" y="2" as="offset"/>
                    </mxGeometry>
                </mxCell>
                <mxCell id="277" value="&lt;font style=&quot;font-size: 36px;&quot;&gt;Customer&amp;nbsp;Schedule&amp;nbsp;for&amp;nbsp;&lt;br&gt;Reservation,&amp;nbsp;Check-in, &lt;br&gt;and&amp;nbsp;Check-out&lt;/font&gt;" style="edgeLabel;html=1;align=center;verticalAlign=middle;resizable=0;points=[];fontSize=24;" parent="186" vertex="1" connectable="0">
                    <mxGeometry x="0.7896" y="-3" relative="1" as="geometry">
                        <mxPoint x="117" y="-25" as="offset"/>
                    </mxGeometry>
                </mxCell>
                <mxCell id="255" style="edgeStyle=none;html=1;entryX=0.5;entryY=1;entryDx=0;entryDy=0;fontSize=30;startArrow=none;fontStyle=1;exitX=0.576;exitY=-0.005;exitDx=0;exitDy=0;exitPerimeter=0;" parent="1" source="420" target="8" edge="1">
                    <mxGeometry relative="1" as="geometry">
                        <Array as="points">
                            <mxPoint x="1050" y="3880"/>
                            <mxPoint x="887" y="3690"/>
                        </Array>
                    </mxGeometry>
                </mxCell>
                <mxCell id="433" value="&lt;font style=&quot;font-size: 36px;&quot;&gt;Customer Transaction &lt;br&gt;Payment Details&lt;/font&gt;" style="edgeLabel;html=1;align=center;verticalAlign=middle;resizable=0;points=[];fontSize=24;" parent="255" vertex="1" connectable="0">
                    <mxGeometry x="-0.6191" y="5" relative="1" as="geometry">
                        <mxPoint x="-77" y="-233" as="offset"/>
                    </mxGeometry>
                </mxCell>
                <mxCell id="251" value="&lt;font style=&quot;font-size: 36px;&quot;&gt;&amp;nbsp;Full Payment for Catering transaction&lt;/font&gt;" style="rounded=1;whiteSpace=wrap;html=1;fontSize=24;" parent="1" vertex="1">
                    <mxGeometry x="290" y="4030" width="350" height="210" as="geometry"/>
                </mxCell>
                <mxCell id="252" value="" style="endArrow=none;html=1;fontSize=24;exitX=0;exitY=0.273;exitDx=0;exitDy=0;entryX=1;entryY=0.287;entryDx=0;entryDy=0;exitPerimeter=0;entryPerimeter=0;fontStyle=1" parent="1" source="251" target="251" edge="1">
                    <mxGeometry width="50" height="50" relative="1" as="geometry">
                        <mxPoint x="489.36" y="3735" as="sourcePoint"/>
                        <mxPoint x="539.36" y="3685" as="targetPoint"/>
                    </mxGeometry>
                </mxCell>
                <mxCell id="491" value="&lt;font style=&quot;font-size: 24px;&quot;&gt;11.1&lt;/font&gt;" style="edgeLabel;html=1;align=center;verticalAlign=middle;resizable=0;points=[];fontSize=36;" parent="252" vertex="1" connectable="0">
                    <mxGeometry x="-0.7139" y="-1" relative="1" as="geometry">
                        <mxPoint x="-10" y="-30" as="offset"/>
                    </mxGeometry>
                </mxCell>
                <mxCell id="398" style="edgeStyle=none;html=1;fontSize=24;entryX=0;entryY=0.5;entryDx=0;entryDy=0;exitX=0;exitY=0;exitDx=400.62;exitDy=85;exitPerimeter=0;fontStyle=1" parent="1" source="348" target="251" edge="1">
                    <mxGeometry relative="1" as="geometry">
                        <mxPoint x="460" y="4430" as="targetPoint"/>
                        <Array as="points">
                            <mxPoint x="170" y="3910"/>
                            <mxPoint x="180" y="4125"/>
                        </Array>
                    </mxGeometry>
                </mxCell>
                <mxCell id="430" value="&lt;font style=&quot;font-size: 36px;&quot;&gt;Transactions&amp;nbsp;&lt;br&gt;Payment&amp;nbsp;&lt;br&gt;Credentials&lt;/font&gt;" style="edgeLabel;html=1;align=center;verticalAlign=middle;resizable=0;points=[];fontSize=24;" parent="398" vertex="1" connectable="0">
                    <mxGeometry x="-0.2259" y="9" relative="1" as="geometry">
                        <mxPoint x="27" y="-15" as="offset"/>
                    </mxGeometry>
                </mxCell>
                <mxCell id="399" style="edgeStyle=none;html=1;fontSize=24;entryX=0.348;entryY=0.005;entryDx=0;entryDy=0;entryPerimeter=0;exitX=0.382;exitY=1.002;exitDx=0;exitDy=0;exitPerimeter=0;fontStyle=1" parent="1" source="348" target="401" edge="1">
                    <mxGeometry relative="1" as="geometry">
                        <mxPoint x="-170" y="4320" as="targetPoint"/>
                    </mxGeometry>
                </mxCell>
                <mxCell id="411" value="&lt;font style=&quot;font-size: 36px;&quot;&gt;If Customer has a VALID registration card&lt;/font&gt;" style="edgeLabel;html=1;align=center;verticalAlign=middle;resizable=0;points=[];fontSize=24;" parent="399" vertex="1" connectable="0">
                    <mxGeometry x="-0.4418" y="-1" relative="1" as="geometry">
                        <mxPoint x="-73" y="34" as="offset"/>
                    </mxGeometry>
                </mxCell>
                <mxCell id="409" style="edgeStyle=none;html=1;fontSize=24;entryX=0.25;entryY=0;entryDx=0;entryDy=0;exitX=0.691;exitY=1.011;exitDx=0;exitDy=0;exitPerimeter=0;fontStyle=1" parent="1" source="348" target="407" edge="1">
                    <mxGeometry relative="1" as="geometry">
                        <Array as="points">
                            <mxPoint x="83" y="4180"/>
                        </Array>
                        <mxPoint x="-40" y="4250" as="targetPoint"/>
                    </mxGeometry>
                </mxCell>
                <mxCell id="410" value="&lt;font style=&quot;font-size: 36px;&quot;&gt;Identification Information&lt;/font&gt;" style="edgeLabel;html=1;align=center;verticalAlign=middle;resizable=0;points=[];fontSize=24;" parent="409" vertex="1" connectable="0">
                    <mxGeometry x="-0.0005" y="-3" relative="1" as="geometry">
                        <mxPoint x="50" y="57" as="offset"/>
                    </mxGeometry>
                </mxCell>
                <mxCell id="348" value="&lt;font style=&quot;font-size: 48px;&quot;&gt;CUSTOMER&lt;/font&gt;" style="shape=cube;whiteSpace=wrap;html=1;boundedLbl=1;backgroundOutline=1;darkOpacity=0.05;darkOpacity2=0.1;" parent="1" vertex="1">
                    <mxGeometry x="-760" y="3830" width="510.31" height="150" as="geometry"/>
                </mxCell>
                <mxCell id="374" style="edgeStyle=none;html=1;entryX=0;entryY=0.75;entryDx=0;entryDy=0;fontSize=24;exitX=0.5;exitY=1;exitDx=0;exitDy=0;fontStyle=1" parent="1" source="376" target="390" edge="1">
                    <mxGeometry relative="1" as="geometry">
                        <Array as="points">
                            <mxPoint x="-550" y="5310"/>
                        </Array>
                    </mxGeometry>
                </mxCell>
                <mxCell id="375" value="&lt;font style=&quot;font-size: 36px;&quot;&gt;Transaction ID and Room ID&amp;nbsp;to Update with&amp;nbsp;CHECK-IN Date&lt;/font&gt;" style="edgeLabel;html=1;align=center;verticalAlign=middle;resizable=0;points=[];fontSize=24;" parent="374" vertex="1" connectable="0">
                    <mxGeometry x="-0.5015" y="5" relative="1" as="geometry">
                        <mxPoint x="292" y="5" as="offset"/>
                    </mxGeometry>
                </mxCell>
                <mxCell id="376" value="&lt;font style=&quot;font-size: 36px;&quot;&gt;Customer&lt;br&gt;Check-in&lt;/font&gt;" style="rounded=1;whiteSpace=wrap;html=1;fontSize=24;" parent="1" vertex="1">
                    <mxGeometry x="-690" y="5020" width="200" height="210" as="geometry"/>
                </mxCell>
                <mxCell id="377" value="" style="endArrow=none;html=1;fontSize=24;exitX=0;exitY=0.25;exitDx=0;exitDy=0;entryX=1;entryY=0.25;entryDx=0;entryDy=0;fontStyle=1" parent="1" source="376" target="376" edge="1">
                    <mxGeometry width="50" height="50" relative="1" as="geometry">
                        <mxPoint x="1349.3600000000001" y="5049.82" as="sourcePoint"/>
                        <mxPoint x="1399.3600000000001" y="4999.82" as="targetPoint"/>
                    </mxGeometry>
                </mxCell>
                <mxCell id="524" value="13.1" style="edgeLabel;html=1;align=center;verticalAlign=middle;resizable=0;points=[];fontSize=24;" parent="377" vertex="1" connectable="0">
                    <mxGeometry x="-0.2456" y="2" relative="1" as="geometry">
                        <mxPoint x="-35" y="-18" as="offset"/>
                    </mxGeometry>
                </mxCell>
                <mxCell id="378" style="edgeStyle=none;html=1;entryX=0;entryY=0.5;entryDx=0;entryDy=0;fontSize=24;startArrow=none;exitX=0.25;exitY=1;exitDx=0;exitDy=0;fontStyle=1" parent="1" source="380" target="390" edge="1">
                    <mxGeometry relative="1" as="geometry">
                        <mxPoint x="-210" y="4710" as="sourcePoint"/>
                        <Array as="points">
                            <mxPoint x="-377" y="5220"/>
                        </Array>
                    </mxGeometry>
                </mxCell>
                <mxCell id="616" value="&lt;font style=&quot;font-size: 36px;&quot;&gt;Transaction ID and Room ID&amp;nbsp;to Update with&amp;nbsp;CHECK-OUT Date&lt;/font&gt;" style="edgeLabel;html=1;align=center;verticalAlign=middle;resizable=0;points=[];fontSize=36;" parent="378" vertex="1" connectable="0">
                    <mxGeometry x="-0.4544" y="1" relative="1" as="geometry">
                        <mxPoint x="322" y="2" as="offset"/>
                    </mxGeometry>
                </mxCell>
                <mxCell id="381" value="" style="endArrow=none;html=1;fontSize=24;exitX=0;exitY=0.25;exitDx=0;exitDy=0;entryX=1;entryY=0.25;entryDx=0;entryDy=0;fontStyle=1" parent="1" source="380" target="380" edge="1">
                    <mxGeometry width="50" height="50" relative="1" as="geometry">
                        <mxPoint x="1349.3600000000001" y="5249.82" as="sourcePoint"/>
                        <mxPoint x="1399.3600000000001" y="5199.82" as="targetPoint"/>
                    </mxGeometry>
                </mxCell>
                <mxCell id="382" style="edgeStyle=none;html=1;entryX=0.127;entryY=0.001;entryDx=0;entryDy=0;fontSize=24;exitX=0.75;exitY=1;exitDx=0;exitDy=0;fontStyle=1;entryPerimeter=0;" parent="1" source="384" target="390" edge="1">
                    <mxGeometry relative="1" as="geometry">
                        <Array as="points">
                            <mxPoint x="760" y="4760"/>
                        </Array>
                    </mxGeometry>
                </mxCell>
                <mxCell id="383" value="&lt;font style=&quot;font-size: 36px;&quot;&gt;Transaction ID &lt;br&gt;to cancel&lt;br&gt;and ROOM ID &lt;br&gt;to update&lt;/font&gt;" style="edgeLabel;html=1;align=center;verticalAlign=middle;resizable=0;points=[];fontSize=24;" parent="382" vertex="1" connectable="0">
                    <mxGeometry x="-0.4936" relative="1" as="geometry">
                        <mxPoint x="-5" y="97" as="offset"/>
                    </mxGeometry>
                </mxCell>
                <mxCell id="384" value="&lt;font style=&quot;font-size: 36px;&quot;&gt;Customer&lt;br&gt;Reservation&lt;br&gt;Cancellation&lt;/font&gt;" style="rounded=1;whiteSpace=wrap;html=1;fontSize=24;" parent="1" vertex="1">
                    <mxGeometry x="510" y="4340" width="230" height="300" as="geometry"/>
                </mxCell>
                <mxCell id="385" value="" style="endArrow=none;html=1;fontSize=24;exitX=0;exitY=0.25;exitDx=0;exitDy=0;entryX=1;entryY=0.25;entryDx=0;entryDy=0;fontStyle=1" parent="1" source="384" target="384" edge="1">
                    <mxGeometry width="50" height="50" relative="1" as="geometry">
                        <mxPoint x="1349.3600000000001" y="5439.82" as="sourcePoint"/>
                        <mxPoint x="1399.3600000000001" y="5389.82" as="targetPoint"/>
                    </mxGeometry>
                </mxCell>
                <mxCell id="528" value="&lt;font style=&quot;font-size: 36px;&quot;&gt;13.4&lt;/font&gt;" style="edgeLabel;html=1;align=center;verticalAlign=middle;resizable=0;points=[];fontSize=24;" parent="385" vertex="1" connectable="0">
                    <mxGeometry x="-0.6994" y="-2" relative="1" as="geometry">
                        <mxPoint x="15" y="-37" as="offset"/>
                    </mxGeometry>
                </mxCell>
                <mxCell id="386" style="edgeStyle=none;html=1;entryX=0;entryY=0.25;entryDx=0;entryDy=0;fontSize=24;exitX=0.25;exitY=1;exitDx=0;exitDy=0;fontStyle=1" parent="1" source="388" target="390" edge="1">
                    <mxGeometry relative="1" as="geometry">
                        <Array as="points">
                            <mxPoint x="-6" y="5140"/>
                            <mxPoint x="520" y="5140"/>
                        </Array>
                    </mxGeometry>
                </mxCell>
                <mxCell id="387" value="&lt;font style=&quot;font-size: 36px;&quot;&gt;Available Days or Hours &lt;br&gt;to&amp;nbsp;Extend current&amp;nbsp;&lt;br&gt;Stay Duration and Room ID&lt;/font&gt;" style="edgeLabel;html=1;align=center;verticalAlign=middle;resizable=0;points=[];fontSize=24;" parent="386" vertex="1" connectable="0">
                    <mxGeometry x="0.4549" y="4" relative="1" as="geometry">
                        <mxPoint x="-262" y="-46" as="offset"/>
                    </mxGeometry>
                </mxCell>
                <mxCell id="388" value="&lt;font style=&quot;font-size: 36px;&quot;&gt;Customer&amp;nbsp;Room Stay &lt;br&gt;Duration Extention&lt;/font&gt;" style="rounded=1;whiteSpace=wrap;html=1;fontSize=24;" parent="1" vertex="1">
                    <mxGeometry x="-101.48" y="4730" width="380" height="210" as="geometry"/>
                </mxCell>
                <mxCell id="389" value="" style="endArrow=none;html=1;fontSize=24;exitX=0;exitY=0.25;exitDx=0;exitDy=0;entryX=1;entryY=0.25;entryDx=0;entryDy=0;fontStyle=1" parent="1" source="388" target="388" edge="1">
                    <mxGeometry width="50" height="50" relative="1" as="geometry">
                        <mxPoint x="1349.3600000000001" y="5609.82" as="sourcePoint"/>
                        <mxPoint x="1399.3600000000001" y="5559.82" as="targetPoint"/>
                    </mxGeometry>
                </mxCell>
                <mxCell id="526" value="13.3" style="edgeLabel;html=1;align=center;verticalAlign=middle;resizable=0;points=[];fontSize=24;" parent="389" vertex="1" connectable="0">
                    <mxGeometry x="-0.6258" relative="1" as="geometry">
                        <mxPoint x="-9" y="-25" as="offset"/>
                    </mxGeometry>
                </mxCell>
                <mxCell id="406" style="edgeStyle=none;html=1;fontSize=24;entryX=0.5;entryY=1;entryDx=0;entryDy=0;fontStyle=1;exitX=0.75;exitY=1;exitDx=0;exitDy=0;" parent="1" source="390" target="13" edge="1">
                    <mxGeometry relative="1" as="geometry">
                        <mxPoint x="150" y="3420" as="targetPoint"/>
                        <Array as="points">
                            <mxPoint x="1188" y="5350"/>
                            <mxPoint x="2360" y="5340"/>
                            <mxPoint x="2350" y="3600"/>
                            <mxPoint x="980" y="3440"/>
                            <mxPoint x="131" y="3380"/>
                        </Array>
                        <mxPoint x="-220" y="4610" as="sourcePoint"/>
                    </mxGeometry>
                </mxCell>
                <mxCell id="427" value="&lt;font style=&quot;font-size: 36px;&quot;&gt;Room Availability and Status&amp;nbsp;Updates&lt;/font&gt;" style="edgeLabel;html=1;align=center;verticalAlign=middle;resizable=0;points=[];fontSize=24;" parent="406" vertex="1" connectable="0">
                    <mxGeometry x="-0.6587" y="-6" relative="1" as="geometry">
                        <mxPoint x="-388" y="1" as="offset"/>
                    </mxGeometry>
                </mxCell>
                <mxCell id="505" value="&lt;font style=&quot;font-size: 36px;&quot;&gt;Room Availability&lt;br&gt;&amp;nbsp;and Status&amp;nbsp;Updates&lt;/font&gt;" style="edgeLabel;html=1;align=center;verticalAlign=middle;resizable=0;points=[];fontSize=24;" parent="406" vertex="1" connectable="0">
                    <mxGeometry x="0.9563" relative="1" as="geometry">
                        <mxPoint x="215" y="26" as="offset"/>
                    </mxGeometry>
                </mxCell>
                <mxCell id="438" style="edgeStyle=none;html=1;entryX=1;entryY=0.75;entryDx=0;entryDy=0;fontSize=24;exitX=0.999;exitY=0.862;exitDx=0;exitDy=0;exitPerimeter=0;fontStyle=1" parent="1" source="390" target="8" edge="1">
                    <mxGeometry relative="1" as="geometry">
                        <Array as="points">
                            <mxPoint x="1560" y="5280"/>
                            <mxPoint x="2280" y="5240"/>
                            <mxPoint x="2250" y="3460"/>
                        </Array>
                    </mxGeometry>
                </mxCell>
                <mxCell id="439" value="&lt;font style=&quot;font-size: 48px;&quot;&gt;Transaction Details for Room Lodging&lt;/font&gt;" style="edgeLabel;html=1;align=center;verticalAlign=middle;resizable=0;points=[];fontSize=24;" parent="438" vertex="1" connectable="0">
                    <mxGeometry x="-0.7178" y="1" relative="1" as="geometry">
                        <mxPoint x="-37" y="-13" as="offset"/>
                    </mxGeometry>
                </mxCell>
                <mxCell id="440" value="&lt;font style=&quot;font-size: 36px;&quot;&gt;Transaction Details&lt;br&gt;&amp;nbsp;for Room Lodging&lt;/font&gt;" style="edgeLabel;html=1;align=center;verticalAlign=middle;resizable=0;points=[];fontSize=24;" parent="438" vertex="1" connectable="0">
                    <mxGeometry x="0.9413" y="-5" relative="1" as="geometry">
                        <mxPoint x="170" y="53" as="offset"/>
                    </mxGeometry>
                </mxCell>
                <mxCell id="503" style="edgeStyle=none;html=1;entryX=0.694;entryY=1.002;entryDx=0;entryDy=0;fontSize=24;fillColor=#FFFFFF;exitX=1;exitY=0.5;exitDx=0;exitDy=0;fontStyle=1;entryPerimeter=0;" parent="1" source="390" target="494" edge="1">
                    <mxGeometry relative="1" as="geometry">
                        <Array as="points">
                            <mxPoint x="1920" y="5060"/>
                        </Array>
                    </mxGeometry>
                </mxCell>
                <mxCell id="509" value="&lt;font style=&quot;font-size: 36px;&quot;&gt;Customer &lt;br&gt;unpaid &lt;br&gt;balance&lt;/font&gt;" style="edgeLabel;html=1;align=center;verticalAlign=middle;resizable=0;points=[];fontSize=24;" parent="503" vertex="1" connectable="0">
                    <mxGeometry x="-0.8052" y="-3" relative="1" as="geometry">
                        <mxPoint x="511" y="-208" as="offset"/>
                    </mxGeometry>
                </mxCell>
                <mxCell id="504" style="edgeStyle=none;html=1;fontSize=24;fillColor=#FFFFFF;exitX=0.75;exitY=0;exitDx=0;exitDy=0;fontStyle=1;entryX=0.75;entryY=1;entryDx=0;entryDy=0;" parent="1" source="390" target="420" edge="1">
                    <mxGeometry relative="1" as="geometry">
                        <Array as="points">
                            <mxPoint x="1180" y="4660"/>
                        </Array>
                    </mxGeometry>
                </mxCell>
                <mxCell id="390" value="&lt;font style=&quot;font-size: 36px;&quot;&gt;Management Verification &lt;br&gt;and Rooms Status Update&lt;/font&gt;" style="rounded=1;whiteSpace=wrap;html=1;fontSize=24;" parent="1" vertex="1">
                    <mxGeometry x="770" y="5070" width="530" height="230" as="geometry"/>
                </mxCell>
                <mxCell id="391" value="" style="endArrow=none;html=1;fontSize=24;exitX=0;exitY=0.25;exitDx=0;exitDy=0;entryX=1;entryY=0.25;entryDx=0;entryDy=0;fontStyle=1" parent="1" source="390" target="390" edge="1">
                    <mxGeometry width="50" height="50" relative="1" as="geometry">
                        <mxPoint x="1514.3600000000001" y="5285.0599999999995" as="sourcePoint"/>
                        <mxPoint x="1564.3600000000001" y="5235.0599999999995" as="targetPoint"/>
                    </mxGeometry>
                </mxCell>
                <mxCell id="530" value="14.0" style="edgeLabel;html=1;align=center;verticalAlign=middle;resizable=0;points=[];fontSize=24;" parent="391" vertex="1" connectable="0">
                    <mxGeometry x="-0.6009" y="4" relative="1" as="geometry">
                        <mxPoint x="-40" y="-21" as="offset"/>
                    </mxGeometry>
                </mxCell>
                <mxCell id="435" style="edgeStyle=none;html=1;entryX=0.5;entryY=0;entryDx=0;entryDy=0;fontSize=24;fontStyle=1" parent="1" source="394" target="390" edge="1">
                    <mxGeometry relative="1" as="geometry">
                        <Array as="points"/>
                    </mxGeometry>
                </mxCell>
                <mxCell id="437" value="&lt;font style=&quot;font-size: 36px;&quot;&gt;ID of Rooms &lt;br&gt;to be reserved&amp;nbsp;&lt;/font&gt;" style="edgeLabel;html=1;align=center;verticalAlign=middle;resizable=0;points=[];fontSize=24;" parent="435" vertex="1" connectable="0">
                    <mxGeometry x="-0.1645" y="4" relative="1" as="geometry">
                        <mxPoint x="-10" y="13" as="offset"/>
                    </mxGeometry>
                </mxCell>
                <mxCell id="394" value="&lt;font style=&quot;font-size: 36px;&quot;&gt;Customer&lt;br&gt;Reservation&lt;/font&gt;" style="rounded=1;whiteSpace=wrap;html=1;fontSize=24;" parent="1" vertex="1">
                    <mxGeometry x="910" y="4590" width="230" height="200" as="geometry"/>
                </mxCell>
                <mxCell id="395" value="" style="endArrow=none;html=1;fontSize=24;exitX=-0.021;exitY=0.198;exitDx=0;exitDy=0;entryX=1.009;entryY=0.198;entryDx=0;entryDy=0;entryPerimeter=0;exitPerimeter=0;fontStyle=1" parent="1" source="394" target="394" edge="1">
                    <mxGeometry width="50" height="50" relative="1" as="geometry">
                        <mxPoint x="1309.3600000000001" y="5179.34" as="sourcePoint"/>
                        <mxPoint x="1359.3600000000001" y="5129.34" as="targetPoint"/>
                    </mxGeometry>
                </mxCell>
                <mxCell id="531" value="13.5" style="edgeLabel;html=1;align=center;verticalAlign=middle;resizable=0;points=[];fontSize=24;" parent="395" vertex="1" connectable="0">
                    <mxGeometry x="-0.5755" y="11" relative="1" as="geometry">
                        <mxPoint x="1" as="offset"/>
                    </mxGeometry>
                </mxCell>
                <mxCell id="403" style="edgeStyle=none;html=1;fontSize=24;exitX=0.182;exitY=1.01;exitDx=0;exitDy=0;entryX=0.25;entryY=0;entryDx=0;entryDy=0;exitPerimeter=0;fontStyle=1" parent="1" source="401" target="376" edge="1">
                    <mxGeometry relative="1" as="geometry">
                        <mxPoint x="-500" y="4660" as="targetPoint"/>
                        <Array as="points"/>
                    </mxGeometry>
                </mxCell>
                <mxCell id="412" value="&lt;font style=&quot;font-size: 36px;&quot;&gt;If Customer has not&amp;nbsp;&lt;br&gt;Yet CHECKED-IN&lt;/font&gt;" style="edgeLabel;html=1;align=center;verticalAlign=middle;resizable=0;points=[];fontSize=24;" parent="403" vertex="1" connectable="0">
                    <mxGeometry x="-0.1211" y="-3" relative="1" as="geometry">
                        <mxPoint x="-39" y="199" as="offset"/>
                    </mxGeometry>
                </mxCell>
                <mxCell id="404" style="edgeStyle=none;html=1;entryX=0.25;entryY=0;entryDx=0;entryDy=0;fontSize=24;exitX=0.43;exitY=1.02;exitDx=0;exitDy=0;exitPerimeter=0;fontStyle=1" parent="1" source="401" target="380" edge="1">
                    <mxGeometry relative="1" as="geometry">
                        <Array as="points"/>
                    </mxGeometry>
                </mxCell>
                <mxCell id="413" value="&lt;font style=&quot;font-size: 36px;&quot;&gt;IF Customer has&amp;nbsp;&lt;br&gt;CHECKED-IN AND&amp;nbsp;&lt;br&gt;Not yet CHECKED-OUT&lt;/font&gt;" style="edgeLabel;html=1;align=center;verticalAlign=middle;resizable=0;points=[];fontSize=24;" parent="404" vertex="1" connectable="0">
                    <mxGeometry x="-0.222" y="-2" relative="1" as="geometry">
                        <mxPoint x="39" y="100" as="offset"/>
                    </mxGeometry>
                </mxCell>
                <mxCell id="405" style="edgeStyle=none;html=1;entryX=0.424;entryY=-0.007;entryDx=0;entryDy=0;fontSize=24;exitX=0.989;exitY=0.944;exitDx=0;exitDy=0;entryPerimeter=0;exitPerimeter=0;fontStyle=1" parent="1" source="401" target="388" edge="1">
                    <mxGeometry relative="1" as="geometry">
                        <Array as="points">
                            <mxPoint y="4530"/>
                        </Array>
                    </mxGeometry>
                </mxCell>
                <mxCell id="417" value="&lt;font style=&quot;font-size: 36px;&quot;&gt;IF customer has CHECKED-IN, &lt;br&gt;NOT YET CHECKED-OUT, and&amp;nbsp;&lt;br&gt;STILL HAS STAY DURATION TIME&amp;nbsp;&lt;/font&gt;" style="edgeLabel;html=1;align=center;verticalAlign=middle;resizable=0;points=[];fontSize=24;" parent="405" vertex="1" connectable="0">
                    <mxGeometry x="-0.2175" y="-2" relative="1" as="geometry">
                        <mxPoint x="-71" y="11" as="offset"/>
                    </mxGeometry>
                </mxCell>
                <mxCell id="401" value="&lt;font style=&quot;font-size: 36px;&quot;&gt;Use Registration Card for Room Lodging&amp;nbsp;&lt;/font&gt;" style="rounded=1;whiteSpace=wrap;html=1;fontSize=24;" parent="1" vertex="1">
                    <mxGeometry x="-780" y="4250" width="710" height="200" as="geometry"/>
                </mxCell>
                <mxCell id="402" value="" style="endArrow=none;html=1;fontSize=24;exitX=0.002;exitY=0.277;exitDx=0;exitDy=0;exitPerimeter=0;entryX=1;entryY=0.292;entryDx=0;entryDy=0;entryPerimeter=0;fontStyle=1" parent="1" source="401" target="401" edge="1">
                    <mxGeometry width="50" height="50" relative="1" as="geometry">
                        <mxPoint x="-510" y="4320" as="sourcePoint"/>
                        <mxPoint x="-20" y="4320" as="targetPoint"/>
                    </mxGeometry>
                </mxCell>
                <mxCell id="487" value="&lt;font style=&quot;font-size: 36px;&quot;&gt;12.0&lt;/font&gt;" style="edgeLabel;html=1;align=center;verticalAlign=middle;resizable=0;points=[];" parent="402" vertex="1" connectable="0">
                    <mxGeometry x="0.1222" y="-1" relative="1" as="geometry">
                        <mxPoint x="-309" y="-28" as="offset"/>
                    </mxGeometry>
                </mxCell>
                <mxCell id="428" style="edgeStyle=none;html=1;entryX=0;entryY=0.5;entryDx=0;entryDy=0;fontSize=24;fontStyle=1" parent="1" source="407" target="384" edge="1">
                    <mxGeometry relative="1" as="geometry"/>
                </mxCell>
                <mxCell id="429" value="&lt;font style=&quot;font-size: 36px;&quot;&gt;PURPOSE &lt;br&gt;OF&lt;br&gt;CONTACT&amp;nbsp;&lt;/font&gt;" style="edgeLabel;html=1;align=center;verticalAlign=middle;resizable=0;points=[];fontSize=24;" parent="428" vertex="1" connectable="0">
                    <mxGeometry x="-0.3549" relative="1" as="geometry">
                        <mxPoint x="1" y="70" as="offset"/>
                    </mxGeometry>
                </mxCell>
                <mxCell id="407" value="&lt;font style=&quot;font-size: 36px;&quot;&gt;Contact Management for Room Lodging Changes&lt;/font&gt;" style="rounded=1;whiteSpace=wrap;html=1;fontSize=24;" parent="1" vertex="1">
                    <mxGeometry x="10" y="4230" width="290" height="170" as="geometry"/>
                </mxCell>
                <mxCell id="408" value="" style="endArrow=none;html=1;fontSize=24;entryX=1.001;entryY=0.297;entryDx=0;entryDy=0;entryPerimeter=0;fontStyle=1" parent="1" target="407" edge="1">
                    <mxGeometry width="50" height="50" relative="1" as="geometry">
                        <mxPoint x="10" y="4280" as="sourcePoint"/>
                        <mxPoint x="1129.3600000000001" y="5109.34" as="targetPoint"/>
                    </mxGeometry>
                </mxCell>
                <mxCell id="527" value="12.1" style="edgeLabel;html=1;align=center;verticalAlign=middle;resizable=0;points=[];fontSize=24;" parent="408" vertex="1" connectable="0">
                    <mxGeometry x="-0.5152" y="3" relative="1" as="geometry">
                        <mxPoint x="-21" y="-17" as="offset"/>
                    </mxGeometry>
                </mxCell>
                <mxCell id="380" value="&lt;font style=&quot;font-size: 36px;&quot;&gt;Customer &lt;br&gt;Check-out&lt;/font&gt;" style="rounded=1;whiteSpace=wrap;html=1;fontSize=24;" parent="1" vertex="1">
                    <mxGeometry x="-425" y="4880" width="190" height="230" as="geometry"/>
                </mxCell>
                <mxCell id="421" value="" style="endArrow=none;html=1;fontSize=24;exitX=0.002;exitY=0.156;exitDx=0;exitDy=0;entryX=0.997;entryY=0.156;entryDx=0;entryDy=0;entryPerimeter=0;exitPerimeter=0;fontStyle=1" parent="1" source="420" target="420" edge="1">
                    <mxGeometry width="50" height="50" relative="1" as="geometry">
                        <mxPoint x="1309.3600000000001" y="5009.82" as="sourcePoint"/>
                        <mxPoint x="1359.3600000000001" y="4959.82" as="targetPoint"/>
                    </mxGeometry>
                </mxCell>
                <mxCell id="422" value="" style="edgeStyle=none;html=1;entryX=0.25;entryY=1;entryDx=0;entryDy=0;fontSize=30;endArrow=none;fontStyle=1" parent="1" source="251" target="8" edge="1">
                    <mxGeometry relative="1" as="geometry">
                        <Array as="points">
                            <mxPoint x="620" y="3820"/>
                        </Array>
                        <mxPoint x="-280" y="3655.6321839080456" as="sourcePoint"/>
                        <mxPoint x="763.2799999999997" y="3370" as="targetPoint"/>
                    </mxGeometry>
                </mxCell>
                <mxCell id="425" value="&lt;span style=&quot;font-size: 36px;&quot;&gt;Transaction&lt;br&gt;&amp;nbsp;Payment Details&lt;/span&gt;" style="edgeLabel;html=1;align=center;verticalAlign=middle;resizable=0;points=[];fontSize=24;" parent="422" vertex="1" connectable="0">
                    <mxGeometry x="0.4217" y="-1" relative="1" as="geometry">
                        <mxPoint x="-42" y="25" as="offset"/>
                    </mxGeometry>
                </mxCell>
                <mxCell id="434" style="edgeStyle=none;html=1;fontSize=24;entryX=0.25;entryY=0;entryDx=0;entryDy=0;fontStyle=1" parent="1" source="420" target="394" edge="1">
                    <mxGeometry relative="1" as="geometry"/>
                </mxCell>
                <mxCell id="492" value="&lt;font style=&quot;font-size: 36px;&quot;&gt;Official Room &lt;br&gt;Reservation&lt;br&gt;Transaction&amp;nbsp;&amp;nbsp;&lt;/font&gt;" style="edgeLabel;html=1;align=center;verticalAlign=middle;resizable=0;points=[];fontSize=24;" parent="434" vertex="1" connectable="0">
                    <mxGeometry x="-0.2139" y="-1" relative="1" as="geometry">
                        <mxPoint x="-67" y="24" as="offset"/>
                    </mxGeometry>
                </mxCell>
                <mxCell id="420" value="&lt;font style=&quot;font-size: 36px;&quot;&gt;Partial 50% - Upfront 100% &lt;br&gt;Payment for&amp;nbsp;Room Reservation&amp;nbsp;&lt;/font&gt;" style="rounded=1;whiteSpace=wrap;html=1;fontSize=24;" parent="1" vertex="1">
                    <mxGeometry x="740" y="4130" width="590" height="190" as="geometry"/>
                </mxCell>
                <mxCell id="424" value="" style="endArrow=none;html=1;fontSize=24;exitX=1;exitY=0.25;exitDx=0;exitDy=0;entryX=0;entryY=0.25;entryDx=0;entryDy=0;fontStyle=1" parent="1" source="420" target="420" edge="1">
                    <mxGeometry width="50" height="50" relative="1" as="geometry">
                        <mxPoint x="1040" y="4270" as="sourcePoint"/>
                        <mxPoint x="770" y="4140" as="targetPoint"/>
                    </mxGeometry>
                </mxCell>
                <mxCell id="511" value="11.2" style="edgeLabel;html=1;align=center;verticalAlign=middle;resizable=0;points=[];fontSize=24;" parent="424" vertex="1" connectable="0">
                    <mxGeometry x="0.8508" relative="1" as="geometry">
                        <mxPoint x="11" y="-17" as="offset"/>
                    </mxGeometry>
                </mxCell>
                <mxCell id="454" style="edgeStyle=none;html=1;entryX=0;entryY=0;entryDx=165;entryDy=209.82;entryPerimeter=0;fontSize=24;exitX=0.25;exitY=0;exitDx=0;exitDy=0;fontStyle=1" parent="1" source="160" target="31" edge="1">
                    <mxGeometry relative="1" as="geometry">
                        <mxPoint x="3005.465" y="1970" as="sourcePoint"/>
                        <Array as="points">
                            <mxPoint x="2253" y="1870"/>
                            <mxPoint x="1945" y="1830"/>
                        </Array>
                        <mxPoint x="3170" y="1415.0900000000001" as="targetPoint"/>
                    </mxGeometry>
                </mxCell>
                <mxCell id="455" value="&lt;font style=&quot;font-size: 36px;&quot;&gt;Schedule&amp;nbsp;&lt;br&gt;Information&lt;/font&gt;" style="edgeLabel;html=1;align=center;verticalAlign=middle;resizable=0;points=[];fontSize=24;" parent="454" vertex="1" connectable="0">
                    <mxGeometry x="-0.0465" y="-1" relative="1" as="geometry">
                        <mxPoint x="-56" y="-104" as="offset"/>
                    </mxGeometry>
                </mxCell>
                <mxCell id="493" value="" style="endArrow=none;html=1;fontSize=24;exitX=0.002;exitY=0.156;exitDx=0;exitDy=0;entryX=0.997;entryY=0.156;entryDx=0;entryDy=0;entryPerimeter=0;exitPerimeter=0;fontStyle=1" parent="1" source="494" target="494" edge="1">
                    <mxGeometry width="50" height="50" relative="1" as="geometry">
                        <mxPoint x="1799.3600000000001" y="5229.82" as="sourcePoint"/>
                        <mxPoint x="1849.3600000000001" y="5179.82" as="targetPoint"/>
                    </mxGeometry>
                </mxCell>
                <mxCell id="498" style="edgeStyle=none;html=1;fontSize=24;entryX=0.692;entryY=0.998;entryDx=0;entryDy=0;exitX=0.75;exitY=0;exitDx=0;exitDy=0;entryPerimeter=0;fontStyle=1" parent="1" source="494" target="8" edge="1">
                    <mxGeometry relative="1" as="geometry">
                        <mxPoint x="891.5150035511359" y="3965" as="targetPoint"/>
                        <Array as="points">
                            <mxPoint x="1890" y="3980"/>
                            <mxPoint x="981" y="3540"/>
                        </Array>
                    </mxGeometry>
                </mxCell>
                <mxCell id="499" value="&lt;font style=&quot;font-size: 36px;&quot;&gt;Customer Transaction &lt;br&gt;Payment Details&lt;/font&gt;" style="edgeLabel;html=1;align=center;verticalAlign=middle;resizable=0;points=[];fontSize=24;" parent="498" vertex="1" connectable="0">
                    <mxGeometry x="-0.3023" y="3" relative="1" as="geometry">
                        <mxPoint x="41" y="90" as="offset"/>
                    </mxGeometry>
                </mxCell>
                <mxCell id="532" style="edgeStyle=none;html=1;fontSize=24;fillColor=#FFFFFF;fontStyle=1;entryX=0.939;entryY=-0.015;entryDx=0;entryDy=0;entryPerimeter=0;exitX=0.331;exitY=1.011;exitDx=0;exitDy=0;exitPerimeter=0;" parent="1" source="494" target="390" edge="1">
                    <mxGeometry relative="1" as="geometry">
                        <mxPoint x="1300" y="5160" as="targetPoint"/>
                        <Array as="points">
                            <mxPoint x="1590" y="4989"/>
                            <mxPoint x="1270" y="4989"/>
                        </Array>
                    </mxGeometry>
                </mxCell>
                <mxCell id="533" value="&lt;font style=&quot;font-size: 36px;&quot;&gt;Customer Transaction &lt;br&gt;Payment Details&lt;/font&gt;" style="edgeLabel;html=1;align=center;verticalAlign=middle;resizable=0;points=[];fontSize=24;" parent="532" vertex="1" connectable="0">
                    <mxGeometry x="-0.8582" y="2" relative="1" as="geometry">
                        <mxPoint x="-105" y="210" as="offset"/>
                    </mxGeometry>
                </mxCell>
                <mxCell id="494" value="&lt;font style=&quot;font-size: 48px;&quot;&gt;Full Payment of Room &lt;br&gt;Lodging Direct-Check-in&amp;nbsp;&lt;/font&gt;" style="rounded=1;whiteSpace=wrap;html=1;fontSize=24;" parent="1" vertex="1">
                    <mxGeometry x="1320" y="4390" width="865" height="330" as="geometry"/>
                </mxCell>
                <mxCell id="495" value="" style="endArrow=none;html=1;fontSize=24;exitX=1;exitY=0.25;exitDx=0;exitDy=0;entryX=0;entryY=0.25;entryDx=0;entryDy=0;fontStyle=1" parent="1" source="494" target="494" edge="1">
                    <mxGeometry width="50" height="50" relative="1" as="geometry">
                        <mxPoint x="1530" y="4490" as="sourcePoint"/>
                        <mxPoint x="1260" y="4360" as="targetPoint"/>
                    </mxGeometry>
                </mxCell>
                <mxCell id="512" value="&lt;font style=&quot;font-size: 36px;&quot;&gt;11.0&lt;/font&gt;" style="edgeLabel;html=1;align=center;verticalAlign=middle;resizable=0;points=[];fontSize=24;" parent="495" vertex="1" connectable="0">
                    <mxGeometry x="0.7806" relative="1" as="geometry">
                        <mxPoint y="-22" as="offset"/>
                    </mxGeometry>
                </mxCell>
                <mxCell id="501" value="" style="endArrow=none;html=1;fontSize=24;exitX=0;exitY=0.25;exitDx=0;exitDy=0;entryX=1;entryY=0.25;entryDx=0;entryDy=0;fontStyle=1" parent="1" source="380" target="380" edge="1">
                    <mxGeometry width="50" height="50" relative="1" as="geometry">
                        <mxPoint x="-510" y="4702.5" as="sourcePoint"/>
                        <mxPoint x="-350" y="4702.5" as="targetPoint"/>
                    </mxGeometry>
                </mxCell>
                <mxCell id="525" value="13.2" style="edgeLabel;html=1;align=center;verticalAlign=middle;resizable=0;points=[];fontSize=24;" parent="501" vertex="1" connectable="0">
                    <mxGeometry x="-0.6683" y="-1" relative="1" as="geometry">
                        <mxPoint x="9" y="-21" as="offset"/>
                    </mxGeometry>
                </mxCell>
                <mxCell id="517" style="edgeStyle=none;html=1;fontSize=24;fillColor=#FFFFFF;entryX=0.261;entryY=0.002;entryDx=0;entryDy=0;entryPerimeter=0;exitX=0.982;exitY=0.955;exitDx=0;exitDy=0;exitPerimeter=0;fontStyle=1" parent="1" source="507" target="172" edge="1">
                    <mxGeometry relative="1" as="geometry">
                        <Array as="points">
                            <mxPoint x="2930" y="1000"/>
                        </Array>
                        <mxPoint x="2820" y="880" as="sourcePoint"/>
                        <mxPoint x="2990" y="1290" as="targetPoint"/>
                    </mxGeometry>
                </mxCell>
                <mxCell id="518" value="&lt;font style=&quot;font-size: 36px;&quot;&gt;Orders &lt;br&gt;and&amp;nbsp;&lt;br&gt;Instructions&lt;/font&gt;" style="edgeLabel;html=1;align=center;verticalAlign=middle;resizable=0;points=[];fontSize=24;" parent="517" vertex="1" connectable="0">
                    <mxGeometry x="-0.1404" y="1" relative="1" as="geometry">
                        <mxPoint x="-50" y="-83" as="offset"/>
                    </mxGeometry>
                </mxCell>
                <mxCell id="522" style="edgeStyle=none;html=1;entryX=0.606;entryY=0;entryDx=0;entryDy=0;fontSize=24;fillColor=#FFFFFF;exitX=0.55;exitY=1.017;exitDx=0;exitDy=0;exitPerimeter=0;entryPerimeter=0;fontStyle=1" parent="1" source="507" target="177" edge="1">
                    <mxGeometry relative="1" as="geometry">
                        <Array as="points">
                            <mxPoint x="2630" y="1140"/>
                            <mxPoint x="2630" y="1220"/>
                        </Array>
                    </mxGeometry>
                </mxCell>
                <mxCell id="523" value="&lt;font style=&quot;font-size: 36px;&quot;&gt;Daily &lt;br&gt;Preparations&lt;br&gt;Progress and&lt;br&gt;Update&lt;/font&gt;" style="edgeLabel;html=1;align=center;verticalAlign=middle;resizable=0;points=[];fontSize=24;" parent="522" vertex="1" connectable="0">
                    <mxGeometry x="-0.6095" y="-1" relative="1" as="geometry">
                        <mxPoint x="49" y="63" as="offset"/>
                    </mxGeometry>
                </mxCell>
                <mxCell id="558" style="edgeStyle=none;html=1;entryX=1;entryY=0.5;entryDx=0;entryDy=0;fontSize=36;exitX=0.89;exitY=0.002;exitDx=0;exitDy=0;exitPerimeter=0;fontStyle=1" parent="1" source="507" target="555" edge="1">
                    <mxGeometry relative="1" as="geometry">
                        <Array as="points">
                            <mxPoint x="2770" y="330"/>
                        </Array>
                    </mxGeometry>
                </mxCell>
                <mxCell id="574" value="&lt;font style=&quot;font-size: 36px;&quot;&gt;Resource&lt;br&gt;&amp;nbsp;consumption &lt;br&gt;and status&lt;/font&gt;" style="edgeLabel;html=1;align=center;verticalAlign=middle;resizable=0;points=[];fontSize=36;" parent="558" vertex="1" connectable="0">
                    <mxGeometry x="0.6803" y="-1" relative="1" as="geometry">
                        <mxPoint x="128" y="38" as="offset"/>
                    </mxGeometry>
                </mxCell>
                <mxCell id="507" value="&lt;font style=&quot;font-size: 36px;&quot;&gt;Preparation for Catering Service&lt;/font&gt;" style="rounded=1;whiteSpace=wrap;html=1;fontSize=24;" parent="1" vertex="1">
                    <mxGeometry x="2380" y="650.9" width="460.62" height="250" as="geometry"/>
                </mxCell>
                <mxCell id="508" value="" style="endArrow=none;html=1;fontSize=24;exitX=-0.005;exitY=0.315;exitDx=0;exitDy=0;entryX=1;entryY=0.297;entryDx=0;entryDy=0;exitPerimeter=0;entryPerimeter=0;fontStyle=1" parent="1" source="507" target="507" edge="1">
                    <mxGeometry width="50" height="50" relative="1" as="geometry">
                        <mxPoint x="2259.36" y="2570" as="sourcePoint"/>
                        <mxPoint x="2309.36" y="2520" as="targetPoint"/>
                    </mxGeometry>
                </mxCell>
                <mxCell id="547" value="15.0" style="edgeLabel;html=1;align=center;verticalAlign=middle;resizable=0;points=[];fontSize=36;" parent="508" vertex="1" connectable="0">
                    <mxGeometry x="-0.8153" y="1" relative="1" as="geometry">
                        <mxPoint x="8" y="-28" as="offset"/>
                    </mxGeometry>
                </mxCell>
                <mxCell id="510" value="&lt;font style=&quot;font-size: 36px;&quot;&gt;Customer &lt;br&gt;unpaid &lt;br&gt;balance&lt;/font&gt;" style="edgeLabel;html=1;align=center;verticalAlign=middle;resizable=0;points=[];fontSize=24;" parent="1" vertex="1" connectable="0">
                    <mxGeometry x="1170.001684321902" y="4449.99504036629" as="geometry"/>
                </mxCell>
                <mxCell id="545" style="edgeStyle=none;html=1;exitX=0.668;exitY=-0.009;exitDx=0;exitDy=0;exitPerimeter=0;entryX=0.633;entryY=1.004;entryDx=0;entryDy=0;entryPerimeter=0;fontStyle=1" parent="1" source="537" target="164" edge="1">
                    <mxGeometry relative="1" as="geometry">
                        <mxPoint x="2619.9986363636367" y="2890.000000000001" as="sourcePoint"/>
                        <mxPoint x="2627.12106060606" y="2730.000000000001" as="targetPoint"/>
                    </mxGeometry>
                </mxCell>
                <mxCell id="546" value="&lt;font style=&quot;font-size: 36px;&quot;&gt;Customer Feedback&lt;/font&gt;" style="edgeLabel;html=1;align=center;verticalAlign=middle;resizable=0;points=[];" parent="545" vertex="1" connectable="0">
                    <mxGeometry x="-0.2884" y="3" relative="1" as="geometry">
                        <mxPoint x="62" y="-23" as="offset"/>
                    </mxGeometry>
                </mxCell>
                <mxCell id="537" value="&lt;font style=&quot;font-size: 48px;&quot;&gt;CUSTOMER&lt;/font&gt;" style="shape=cube;whiteSpace=wrap;html=1;boundedLbl=1;backgroundOutline=1;darkOpacity=0.05;darkOpacity2=0.1;" parent="1" vertex="1">
                    <mxGeometry x="2340" y="3015" width="450.62" height="150" as="geometry"/>
                </mxCell>
                <mxCell id="579" style="edgeStyle=none;html=1;fontSize=24;exitX=0.147;exitY=-0.004;exitDx=0;exitDy=0;exitPerimeter=0;entryX=0;entryY=0.5;entryDx=0;entryDy=0;fontStyle=1" parent="1" source="555" target="608" edge="1">
                    <mxGeometry relative="1" as="geometry">
                        <Array as="points">
                            <mxPoint x="1690" y="-136"/>
                        </Array>
                    </mxGeometry>
                </mxCell>
                <mxCell id="597" value="&lt;font style=&quot;font-size: 36px;&quot;&gt;Processed and Validated consumed resources&lt;/font&gt;" style="edgeLabel;html=1;align=center;verticalAlign=middle;resizable=0;points=[];fontSize=24;" parent="579" vertex="1" connectable="0">
                    <mxGeometry x="0.2479" y="-3" relative="1" as="geometry">
                        <mxPoint x="167" y="104" as="offset"/>
                    </mxGeometry>
                </mxCell>
                <mxCell id="603" style="edgeStyle=none;html=1;entryX=0.072;entryY=-0.008;entryDx=0;entryDy=0;entryPerimeter=0;fontSize=24;exitX=0.329;exitY=1.01;exitDx=0;exitDy=0;exitPerimeter=0;fontStyle=1" parent="1" source="555" target="29" edge="1">
                    <mxGeometry relative="1" as="geometry"/>
                </mxCell>
                <mxCell id="604" value="&lt;font style=&quot;font-size: 36px;&quot;&gt;Updates on&lt;br&gt;Unvalidated&amp;nbsp;&lt;br&gt;Resources&amp;nbsp;&lt;br&gt;Consumed&lt;/font&gt;" style="edgeLabel;html=1;align=center;verticalAlign=middle;resizable=0;points=[];fontSize=24;" parent="603" vertex="1" connectable="0">
                    <mxGeometry x="-0.4093" y="-7" relative="1" as="geometry">
                        <mxPoint x="-64" y="93" as="offset"/>
                    </mxGeometry>
                </mxCell>
                <mxCell id="555" value="&lt;font style=&quot;font-size: 36px;&quot;&gt;Record to Inventory Excel Sheet the costs and&amp;nbsp;&lt;br&gt;resources consumed&lt;/font&gt;" style="rounded=1;whiteSpace=wrap;html=1;fontSize=24;" parent="1" vertex="1">
                    <mxGeometry x="1570" y="200" width="820" height="240" as="geometry"/>
                </mxCell>
                <mxCell id="556" value="" style="endArrow=none;html=1;fontSize=24;exitX=0;exitY=0.25;exitDx=0;exitDy=0;entryX=1;entryY=0.25;entryDx=0;entryDy=0;fontStyle=1" parent="1" source="555" target="555" edge="1">
                    <mxGeometry width="50" height="50" relative="1" as="geometry">
                        <mxPoint x="1399.3600000000001" y="319.8199999999997" as="sourcePoint"/>
                        <mxPoint x="1449.3600000000001" y="269.8199999999997" as="targetPoint"/>
                    </mxGeometry>
                </mxCell>
                <mxCell id="557" value="16.0" style="edgeLabel;html=1;align=center;verticalAlign=middle;resizable=0;points=[];fontSize=36;" parent="556" vertex="1" connectable="0">
                    <mxGeometry x="-0.7161" y="3" relative="1" as="geometry">
                        <mxPoint x="8" y="-19" as="offset"/>
                    </mxGeometry>
                </mxCell>
                <mxCell id="565" style="edgeStyle=none;html=1;fontSize=36;entryX=0.277;entryY=0.002;entryDx=0;entryDy=0;entryPerimeter=0;fontStyle=1" parent="1" source="559" target="555" edge="1">
                    <mxGeometry relative="1" as="geometry">
                        <Array as="points">
                            <mxPoint x="1800" y="120"/>
                        </Array>
                    </mxGeometry>
                </mxCell>
                <mxCell id="598" value="&lt;font style=&quot;font-size: 36px;&quot;&gt;record of consumed&amp;nbsp;resources&lt;/font&gt;" style="edgeLabel;html=1;align=center;verticalAlign=middle;resizable=0;points=[];fontSize=24;" parent="565" vertex="1" connectable="0">
                    <mxGeometry x="-0.0425" y="-2" relative="1" as="geometry">
                        <mxPoint x="30" y="2" as="offset"/>
                    </mxGeometry>
                </mxCell>
                <mxCell id="581" style="edgeStyle=none;html=1;fontSize=24;exitX=0.926;exitY=1.007;exitDx=0;exitDy=0;exitPerimeter=0;entryX=0.661;entryY=0.006;entryDx=0;entryDy=0;entryPerimeter=0;fontStyle=1" parent="1" source="559" target="172" edge="1">
                    <mxGeometry relative="1" as="geometry">
                        <mxPoint x="3180" y="1450" as="targetPoint"/>
                        <Array as="points">
                            <mxPoint x="2920" y="310"/>
                            <mxPoint x="3130" y="420"/>
                            <mxPoint x="3170" y="710"/>
                            <mxPoint x="3180" y="1040"/>
                        </Array>
                    </mxGeometry>
                </mxCell>
                <mxCell id="585" value="&lt;font style=&quot;font-size: 36px;&quot;&gt;Orders &lt;br&gt;and&amp;nbsp;&lt;br&gt;Instruction&amp;nbsp;&lt;br&gt;from&amp;nbsp;&lt;br&gt;Management&lt;/font&gt;" style="edgeLabel;html=1;align=center;verticalAlign=middle;resizable=0;points=[];fontSize=24;" parent="581" vertex="1" connectable="0">
                    <mxGeometry x="-0.7108" y="7" relative="1" as="geometry">
                        <mxPoint x="31" y="118" as="offset"/>
                    </mxGeometry>
                </mxCell>
                <mxCell id="606" style="edgeStyle=none;html=1;entryX=0.764;entryY=1.015;entryDx=0;entryDy=0;entryPerimeter=0;fontSize=24;exitX=0.895;exitY=-0.018;exitDx=0;exitDy=0;exitPerimeter=0;fontStyle=1" parent="1" source="559" target="590" edge="1">
                    <mxGeometry relative="1" as="geometry"/>
                </mxCell>
                <mxCell id="607" value="&lt;font style=&quot;font-size: 36px;&quot;&gt;Situation Report and status&amp;nbsp;&lt;/font&gt;" style="edgeLabel;html=1;align=center;verticalAlign=middle;resizable=0;points=[];fontSize=24;" parent="606" vertex="1" connectable="0">
                    <mxGeometry x="0.3185" y="-3" relative="1" as="geometry">
                        <mxPoint x="184" y="34" as="offset"/>
                    </mxGeometry>
                </mxCell>
                <mxCell id="559" value="&lt;font style=&quot;font-size: 36px;&quot;&gt;Facilities Maintenance and&amp;nbsp;&lt;br&gt;preparation of services&lt;/font&gt;" style="rounded=1;whiteSpace=wrap;html=1;fontSize=24;" parent="1" vertex="1">
                    <mxGeometry x="2440" width="520" height="240" as="geometry"/>
                </mxCell>
                <mxCell id="560" value="" style="endArrow=none;html=1;fontSize=24;exitX=0;exitY=0.25;exitDx=0;exitDy=0;entryX=1;entryY=0.25;entryDx=0;entryDy=0;fontStyle=1" parent="1" source="559" target="559" edge="1">
                    <mxGeometry width="50" height="50" relative="1" as="geometry">
                        <mxPoint x="2269.36" y="119.81999999999971" as="sourcePoint"/>
                        <mxPoint x="2319.36" y="69.81999999999971" as="targetPoint"/>
                    </mxGeometry>
                </mxCell>
                <mxCell id="561" value="16.0" style="edgeLabel;html=1;align=center;verticalAlign=middle;resizable=0;points=[];fontSize=36;" parent="560" vertex="1" connectable="0">
                    <mxGeometry x="-0.7161" y="3" relative="1" as="geometry">
                        <mxPoint x="8" y="-19" as="offset"/>
                    </mxGeometry>
                </mxCell>
                <mxCell id="576" style="edgeStyle=none;html=1;fontSize=24;fontStyle=1;entryX=0.837;entryY=-0.003;entryDx=0;entryDy=0;entryPerimeter=0;" parent="1" source="566" edge="1" target="177">
                    <mxGeometry relative="1" as="geometry">
                        <mxPoint x="2710" y="1200" as="targetPoint"/>
                        <Array as="points">
                            <mxPoint x="3280" y="-80"/>
                            <mxPoint x="3290" y="1140"/>
                            <mxPoint x="2701" y="1190"/>
                        </Array>
                    </mxGeometry>
                </mxCell>
                <mxCell id="587" value="&lt;font style=&quot;font-size: 36px;&quot;&gt;relevant Inventory&lt;br&gt;&amp;nbsp;status and changes&amp;nbsp;&lt;/font&gt;" style="edgeLabel;html=1;align=center;verticalAlign=middle;resizable=0;points=[];fontSize=24;" parent="576" vertex="1" connectable="0">
                    <mxGeometry x="-0.888" y="-1" relative="1" as="geometry">
                        <mxPoint x="82" y="14" as="offset"/>
                    </mxGeometry>
                </mxCell>
                <mxCell id="588" value="&lt;font style=&quot;font-size: 36px;&quot;&gt;relevant&lt;br&gt;Inventory &lt;br&gt;status&lt;br&gt;and&lt;br&gt;changes&amp;nbsp;&lt;/font&gt;" style="edgeLabel;html=1;align=center;verticalAlign=middle;resizable=0;points=[];fontSize=24;" parent="576" vertex="1" connectable="0">
                    <mxGeometry x="0.8893" y="-1" relative="1" as="geometry">
                        <mxPoint x="37" y="80" as="offset"/>
                    </mxGeometry>
                </mxCell>
                <mxCell id="589" value="&lt;font style=&quot;font-size: 36px;&quot;&gt;relevant&lt;br&gt;Inventory&lt;br&gt;status&lt;br&gt;and&lt;br&gt;changes&amp;nbsp;&lt;/font&gt;" style="edgeLabel;html=1;align=center;verticalAlign=middle;resizable=0;points=[];fontSize=24;" parent="576" vertex="1" connectable="0">
                    <mxGeometry x="0.2895" relative="1" as="geometry">
                        <mxPoint x="43" y="38" as="offset"/>
                    </mxGeometry>
                </mxCell>
                <mxCell id="566" value="" style="rounded=0;whiteSpace=wrap;html=1;fontSize=24;" parent="1" vertex="1">
                    <mxGeometry x="1810" y="-220" width="410" height="178.67" as="geometry"/>
                </mxCell>
                <mxCell id="567" value="" style="endArrow=none;html=1;fontSize=24;exitX=0.155;exitY=-0.002;exitDx=0;exitDy=0;exitPerimeter=0;entryX=0.152;entryY=1.011;entryDx=0;entryDy=0;entryPerimeter=0;fontStyle=1" parent="1" source="566" target="566" edge="1">
                    <mxGeometry width="50" height="50" relative="1" as="geometry">
                        <mxPoint x="1840" y="-21.75" as="sourcePoint"/>
                        <mxPoint x="1890" y="-71.75" as="targetPoint"/>
                    </mxGeometry>
                </mxCell>
                <mxCell id="568" value="&lt;font style=&quot;font-size: 36px;&quot;&gt;Excel Inventory Spreadsheet&lt;/font&gt;" style="text;html=1;strokeColor=none;fillColor=none;align=center;verticalAlign=middle;whiteSpace=wrap;rounded=0;fontSize=36;" parent="1" vertex="1">
                    <mxGeometry x="1905" y="-150.83000000000004" width="220" height="40.33" as="geometry"/>
                </mxCell>
                <mxCell id="570" value="" style="endArrow=classic;html=1;fontSize=36;entryX=0.75;entryY=1;entryDx=0;entryDy=0;exitX=0.683;exitY=0;exitDx=0;exitDy=0;exitPerimeter=0;fontStyle=1" parent="1" source="29" target="559" edge="1">
                    <mxGeometry width="50" height="50" relative="1" as="geometry">
                        <mxPoint x="2250" y="770" as="sourcePoint"/>
                        <mxPoint x="2710" y="410" as="targetPoint"/>
                        <Array as="points">
                            <mxPoint x="2039" y="710"/>
                            <mxPoint x="2180" y="640"/>
                            <mxPoint x="2370" y="620"/>
                            <mxPoint x="2840" y="570"/>
                        </Array>
                    </mxGeometry>
                </mxCell>
                <mxCell id="601" value="&lt;span style=&quot;&quot;&gt;&lt;font style=&quot;font-size: 36px;&quot;&gt;Orders and Instructions&lt;/font&gt;&lt;/span&gt;" style="edgeLabel;html=1;align=center;verticalAlign=middle;resizable=0;points=[];fontSize=24;" parent="570" vertex="1" connectable="0">
                    <mxGeometry x="-0.4262" y="2" relative="1" as="geometry">
                        <mxPoint x="-93" y="22" as="offset"/>
                    </mxGeometry>
                </mxCell>
                <mxCell id="593" style="edgeStyle=none;html=1;entryX=0.75;entryY=0;entryDx=0;entryDy=0;fontSize=24;fontStyle=1" parent="1" source="590" target="559" edge="1">
                    <mxGeometry relative="1" as="geometry"/>
                </mxCell>
                <mxCell id="594" value="&lt;font style=&quot;font-size: 36px;&quot;&gt;Tasks Specific &lt;br&gt;Orders and Instructions&amp;nbsp;&lt;/font&gt;" style="edgeLabel;html=1;align=center;verticalAlign=middle;resizable=0;points=[];fontSize=24;" parent="593" vertex="1" connectable="0">
                    <mxGeometry x="-0.6171" y="1" relative="1" as="geometry">
                        <mxPoint x="-175" y="17" as="offset"/>
                    </mxGeometry>
                </mxCell>
                <mxCell id="590" value="&lt;font style=&quot;&quot;&gt;&lt;font style=&quot;font-size: 36px;&quot;&gt;Management Officer&lt;/font&gt;&lt;br&gt;&lt;/font&gt;" style="shape=cube;whiteSpace=wrap;html=1;boundedLbl=1;backgroundOutline=1;darkOpacity=0.05;darkOpacity2=0.1;" parent="1" vertex="1">
                    <mxGeometry x="2665" y="-570" width="310" height="209.82" as="geometry"/>
                </mxCell>
                <mxCell id="600" value="" style="edgeStyle=none;html=1;fontSize=24;fillColor=#FFFFFF;exitX=0;exitY=0;exitDx=300;exitDy=0;exitPerimeter=0;endArrow=none;fontStyle=1" parent="1" source="29" target="572" edge="1">
                    <mxGeometry relative="1" as="geometry">
                        <Array as="points"/>
                        <mxPoint x="2063.5200000000004" y="870.8400000000001" as="sourcePoint"/>
                        <mxPoint x="2381.8424800000003" y="769.4000000000001" as="targetPoint"/>
                    </mxGeometry>
                </mxCell>
                <mxCell id="605" style="edgeStyle=none;html=1;entryX=0;entryY=0.5;entryDx=0;entryDy=0;fontSize=24;fontStyle=1" parent="1" source="572" target="507" edge="1">
                    <mxGeometry relative="1" as="geometry"/>
                </mxCell>
                <mxCell id="572" value="&lt;span style=&quot;background-color: rgb(24, 20, 29);&quot;&gt;&lt;font style=&quot;font-size: 36px;&quot;&gt;Orders and Instructions&lt;/font&gt;&lt;/span&gt;" style="text;html=1;strokeColor=none;fillColor=none;align=center;verticalAlign=middle;whiteSpace=wrap;rounded=0;fontSize=36;" parent="1" vertex="1">
                    <mxGeometry x="2125" y="770" width="170" height="30" as="geometry"/>
                </mxCell>
                <mxCell id="608" value="&lt;font style=&quot;font-size: 24px;&quot;&gt;D1&lt;/font&gt;" style="text;html=1;strokeColor=none;fillColor=none;align=center;verticalAlign=middle;whiteSpace=wrap;rounded=0;" parent="1" vertex="1">
                    <mxGeometry x="1810" y="-150.82999999999998" width="60" height="30" as="geometry"/>
                </mxCell>
                <mxCell id="609" value="&lt;blockquote style=&quot;margin: 0 0 0 40px; border: none; padding: 0px;&quot;&gt;D2&lt;/blockquote&gt;" style="text;html=1;strokeColor=none;fillColor=none;align=center;verticalAlign=middle;whiteSpace=wrap;rounded=0;fontSize=24;" parent="1" vertex="1">
                    <mxGeometry x="-150" y="3225" width="60" height="30" as="geometry"/>
                </mxCell>
                <mxCell id="610" value="D3" style="text;html=1;strokeColor=none;fillColor=none;align=center;verticalAlign=middle;whiteSpace=wrap;rounded=0;fontSize=24;" parent="1" vertex="1">
                    <mxGeometry x="650" y="3295" width="60" height="30" as="geometry"/>
                </mxCell>
                <mxCell id="611" value="D4" style="text;html=1;strokeColor=none;fillColor=none;align=center;verticalAlign=middle;whiteSpace=wrap;rounded=0;fontSize=24;" parent="1" vertex="1">
                    <mxGeometry x="1350" y="3240" width="60" height="30" as="geometry"/>
                </mxCell>
                <mxCell id="628" value="Registration Cards Storage" style="text;html=1;strokeColor=none;fillColor=none;align=center;verticalAlign=middle;whiteSpace=wrap;rounded=0;fontSize=36;" vertex="1" parent="1">
                    <mxGeometry x="-60" y="3225" width="370" height="30" as="geometry"/>
                </mxCell>
            </root>
        </mxGraphModel>
    </diagram>
</mxfile>